%TF.GenerationSoftware,KiCad,Pcbnew,(6.0.2)*%
%TF.CreationDate,2022-03-14T21:43:42+00:00*%
%TF.ProjectId,snowflake-brooch,736e6f77-666c-4616-9b65-2d62726f6f63,rev?*%
%TF.SameCoordinates,Original*%
%TF.FileFunction,Soldermask,Top*%
%TF.FilePolarity,Negative*%
%FSLAX46Y46*%
G04 Gerber Fmt 4.6, Leading zero omitted, Abs format (unit mm)*
G04 Created by KiCad (PCBNEW (6.0.2)) date 2022-03-14 21:43:42*
%MOMM*%
%LPD*%
G01*
G04 APERTURE LIST*
G04 Aperture macros list*
%AMHorizOval*
0 Thick line with rounded ends*
0 $1 width*
0 $2 $3 position (X,Y) of the first rounded end (center of the circle)*
0 $4 $5 position (X,Y) of the second rounded end (center of the circle)*
0 Add line between two ends*
20,1,$1,$2,$3,$4,$5,0*
0 Add two circle primitives to create the rounded ends*
1,1,$1,$2,$3*
1,1,$1,$4,$5*%
%AMRotRect*
0 Rectangle, with rotation*
0 The origin of the aperture is its center*
0 $1 length*
0 $2 width*
0 $3 Rotation angle, in degrees counterclockwise*
0 Add horizontal line*
21,1,$1,$2,0,0,$3*%
G04 Aperture macros list end*
%ADD10RotRect,1.800000X1.800000X300.000000*%
%ADD11C,1.800000*%
%ADD12C,1.700000*%
%ADD13C,3.000000*%
%ADD14HorizOval,1.600000X0.000000X0.000000X0.000000X0.000000X0*%
%ADD15C,1.600000*%
%ADD16O,1.600000X1.600000*%
%ADD17HorizOval,1.600000X0.000000X0.000000X0.000000X0.000000X0*%
%ADD18HorizOval,1.600000X0.000000X0.000000X0.000000X0.000000X0*%
%ADD19HorizOval,1.600000X0.000000X0.000000X0.000000X0.000000X0*%
%ADD20RotRect,1.800000X1.800000X60.000000*%
%ADD21RotRect,1.800000X1.800000X120.000000*%
%ADD22R,1.800000X1.800000*%
%ADD23RotRect,1.800000X1.800000X240.000000*%
G04 APERTURE END LIST*
%TO.C,G\u002A\u002A\u002A*%
G36*
X144813924Y-71738399D02*
G01*
X144869325Y-71768507D01*
X144956547Y-71817079D01*
X145073166Y-71882735D01*
X145216759Y-71964092D01*
X145384901Y-72059770D01*
X145575169Y-72168386D01*
X145785140Y-72288561D01*
X146012390Y-72418912D01*
X146254495Y-72558058D01*
X146509032Y-72704618D01*
X146757707Y-72848048D01*
X148699290Y-73968834D01*
X148693899Y-76223272D01*
X148688508Y-78477711D01*
X146750142Y-79597030D01*
X146486403Y-79749200D01*
X146232851Y-79895245D01*
X145991909Y-80033782D01*
X145765999Y-80163430D01*
X145557542Y-80282808D01*
X145368960Y-80390533D01*
X145202676Y-80485224D01*
X145061111Y-80565500D01*
X144946687Y-80629978D01*
X144861826Y-80677278D01*
X144808949Y-80706018D01*
X144790593Y-80714878D01*
X144769728Y-80704294D01*
X144714619Y-80673876D01*
X144627693Y-80625010D01*
X144511375Y-80559084D01*
X144368092Y-80477487D01*
X144200269Y-80381607D01*
X144010334Y-80272830D01*
X143800712Y-80152544D01*
X143573829Y-80022139D01*
X143332112Y-79883000D01*
X143077986Y-79736516D01*
X142837068Y-79597469D01*
X140904729Y-78481530D01*
X140903999Y-76222483D01*
X140903270Y-73963437D01*
X142836339Y-72846223D01*
X143099745Y-72694106D01*
X143352998Y-72548080D01*
X143593670Y-72409535D01*
X143819333Y-72279857D01*
X144027558Y-72160435D01*
X144215918Y-72052656D01*
X144381983Y-71957907D01*
X144523326Y-71877578D01*
X144637519Y-71813055D01*
X144722132Y-71765726D01*
X144774738Y-71736978D01*
X144792766Y-71728136D01*
X144813924Y-71738399D01*
G37*
%TD*%
D10*
%TO.C,D2*%
X156207500Y-68110818D03*
D11*
X157477500Y-70310523D03*
%TD*%
D12*
%TO.C,J2*%
X127635000Y-70942200D03*
%TD*%
%TO.C,J1*%
X161925000Y-70942200D03*
%TD*%
D13*
%TO.C,BT1*%
X144780000Y-69600000D03*
X144780000Y-82800000D03*
%TD*%
D14*
%TO.C,R1*%
X146052443Y-66370200D03*
D15*
X152651557Y-70180200D03*
%TD*%
D16*
%TO.C,R2*%
X153924000Y-72390000D03*
D15*
X153924000Y-80010000D03*
%TD*%
%TO.C,R3*%
X146052444Y-86029800D03*
D17*
X152651558Y-82219800D03*
%TD*%
D15*
%TO.C,R4*%
X136908444Y-82219800D03*
D18*
X143507558Y-86029800D03*
%TD*%
D15*
%TO.C,R5*%
X135636000Y-72390000D03*
D16*
X135636000Y-80010000D03*
%TD*%
D15*
%TO.C,R6*%
X143507557Y-66370200D03*
D19*
X136908443Y-70180200D03*
%TD*%
D20*
%TO.C,D6*%
X132077500Y-70319183D03*
D11*
X133347500Y-68119478D03*
%TD*%
D21*
%TO.C,D5*%
X133352500Y-84289183D03*
D11*
X132082500Y-82089478D03*
%TD*%
D22*
%TO.C,D4*%
X146050000Y-90119200D03*
D11*
X143510000Y-90119200D03*
%TD*%
D23*
%TO.C,D3*%
X157480000Y-82042000D03*
D11*
X156210000Y-84241705D03*
%TD*%
D22*
%TO.C,D1*%
X143510000Y-62280800D03*
D11*
X146050000Y-62280800D03*
%TD*%
M02*
