%TF.GenerationSoftware,KiCad,Pcbnew,(6.0.2)*%
%TF.CreationDate,2022-03-14T21:43:42+00:00*%
%TF.ProjectId,snowflake-brooch,736e6f77-666c-4616-9b65-2d62726f6f63,rev?*%
%TF.SameCoordinates,Original*%
%TF.FileFunction,Copper,L2,Bot*%
%TF.FilePolarity,Positive*%
%FSLAX46Y46*%
G04 Gerber Fmt 4.6, Leading zero omitted, Abs format (unit mm)*
G04 Created by KiCad (PCBNEW (6.0.2)) date 2022-03-14 21:43:42*
%MOMM*%
%LPD*%
G01*
G04 APERTURE LIST*
G04 Aperture macros list*
%AMHorizOval*
0 Thick line with rounded ends*
0 $1 width*
0 $2 $3 position (X,Y) of the first rounded end (center of the circle)*
0 $4 $5 position (X,Y) of the second rounded end (center of the circle)*
0 Add line between two ends*
20,1,$1,$2,$3,$4,$5,0*
0 Add two circle primitives to create the rounded ends*
1,1,$1,$2,$3*
1,1,$1,$4,$5*%
%AMRotRect*
0 Rectangle, with rotation*
0 The origin of the aperture is its center*
0 $1 length*
0 $2 width*
0 $3 Rotation angle, in degrees counterclockwise*
0 Add horizontal line*
21,1,$1,$2,0,0,$3*%
G04 Aperture macros list end*
%TA.AperFunction,ComponentPad*%
%ADD10RotRect,1.800000X1.800000X300.000000*%
%TD*%
%TA.AperFunction,ComponentPad*%
%ADD11C,1.800000*%
%TD*%
%TA.AperFunction,ComponentPad*%
%ADD12C,1.700000*%
%TD*%
%TA.AperFunction,ComponentPad*%
%ADD13C,3.000000*%
%TD*%
%TA.AperFunction,SMDPad,CuDef*%
%ADD14C,9.000000*%
%TD*%
%TA.AperFunction,ComponentPad*%
%ADD15HorizOval,1.600000X0.000000X0.000000X0.000000X0.000000X0*%
%TD*%
%TA.AperFunction,ComponentPad*%
%ADD16C,1.600000*%
%TD*%
%TA.AperFunction,ComponentPad*%
%ADD17O,1.600000X1.600000*%
%TD*%
%TA.AperFunction,ComponentPad*%
%ADD18HorizOval,1.600000X0.000000X0.000000X0.000000X0.000000X0*%
%TD*%
%TA.AperFunction,ComponentPad*%
%ADD19HorizOval,1.600000X0.000000X0.000000X0.000000X0.000000X0*%
%TD*%
%TA.AperFunction,ComponentPad*%
%ADD20HorizOval,1.600000X0.000000X0.000000X0.000000X0.000000X0*%
%TD*%
%TA.AperFunction,ComponentPad*%
%ADD21RotRect,1.800000X1.800000X60.000000*%
%TD*%
%TA.AperFunction,ComponentPad*%
%ADD22RotRect,1.800000X1.800000X120.000000*%
%TD*%
%TA.AperFunction,ComponentPad*%
%ADD23R,1.800000X1.800000*%
%TD*%
%TA.AperFunction,ComponentPad*%
%ADD24RotRect,1.800000X1.800000X240.000000*%
%TD*%
%TA.AperFunction,ViaPad*%
%ADD25C,0.800000*%
%TD*%
%TA.AperFunction,Conductor*%
%ADD26C,0.250000*%
%TD*%
G04 APERTURE END LIST*
D10*
%TO.P,D2,1,K*%
%TO.N,GND*%
X156207500Y-68110818D03*
D11*
%TO.P,D2,2,A*%
%TO.N,Net-(D2-Pad2)*%
X157477500Y-70310523D03*
%TD*%
D12*
%TO.P,J2,1,Pin_1*%
%TO.N,VCC*%
X127635000Y-70942200D03*
%TD*%
%TO.P,J1,1,Pin_1*%
%TO.N,Net-(BT1-Pad1)*%
X161925000Y-70942200D03*
%TD*%
D13*
%TO.P,BT1,1,+*%
%TO.N,Net-(BT1-Pad1)*%
X144780000Y-69600000D03*
X144780000Y-82800000D03*
D14*
%TO.P,BT1,2,-*%
%TO.N,GND*%
X144780000Y-76200000D03*
%TD*%
D15*
%TO.P,R1,2*%
%TO.N,Net-(D1-Pad2)*%
X146052443Y-66370200D03*
D16*
%TO.P,R1,1*%
%TO.N,VCC*%
X152651557Y-70180200D03*
%TD*%
D17*
%TO.P,R2,2*%
%TO.N,Net-(D2-Pad2)*%
X153924000Y-72390000D03*
D16*
%TO.P,R2,1*%
%TO.N,VCC*%
X153924000Y-80010000D03*
%TD*%
%TO.P,R3,1*%
%TO.N,VCC*%
X146052444Y-86029800D03*
D18*
%TO.P,R3,2*%
%TO.N,Net-(D3-Pad2)*%
X152651558Y-82219800D03*
%TD*%
D16*
%TO.P,R4,1*%
%TO.N,VCC*%
X136908444Y-82219800D03*
D19*
%TO.P,R4,2*%
%TO.N,Net-(D4-Pad2)*%
X143507558Y-86029800D03*
%TD*%
D16*
%TO.P,R5,1*%
%TO.N,VCC*%
X135636000Y-72390000D03*
D17*
%TO.P,R5,2*%
%TO.N,Net-(D5-Pad2)*%
X135636000Y-80010000D03*
%TD*%
D16*
%TO.P,R6,1*%
%TO.N,VCC*%
X143507557Y-66370200D03*
D20*
%TO.P,R6,2*%
%TO.N,Net-(D6-Pad2)*%
X136908443Y-70180200D03*
%TD*%
D21*
%TO.P,D6,1,K*%
%TO.N,GND*%
X132077500Y-70319183D03*
D11*
%TO.P,D6,2,A*%
%TO.N,Net-(D6-Pad2)*%
X133347500Y-68119478D03*
%TD*%
D22*
%TO.P,D5,1,K*%
%TO.N,GND*%
X133352500Y-84289183D03*
D11*
%TO.P,D5,2,A*%
%TO.N,Net-(D5-Pad2)*%
X132082500Y-82089478D03*
%TD*%
D23*
%TO.P,D4,1,K*%
%TO.N,GND*%
X146050000Y-90119200D03*
D11*
%TO.P,D4,2,A*%
%TO.N,Net-(D4-Pad2)*%
X143510000Y-90119200D03*
%TD*%
D24*
%TO.P,D3,1,K*%
%TO.N,GND*%
X157480000Y-82042000D03*
D11*
%TO.P,D3,2,A*%
%TO.N,Net-(D3-Pad2)*%
X156210000Y-84241705D03*
%TD*%
D23*
%TO.P,D1,1,K*%
%TO.N,GND*%
X143510000Y-62280800D03*
D11*
%TO.P,D1,2,A*%
%TO.N,Net-(D1-Pad2)*%
X146050000Y-62280800D03*
%TD*%
D25*
%TO.N,Net-(BT1-Pad1)*%
X154889200Y-70358000D03*
%TO.N,GND*%
X144754600Y-76200000D03*
%TD*%
D26*
%TO.N,Net-(BT1-Pad1)*%
X162204400Y-69799200D02*
X161925000Y-70942200D01*
X157886400Y-68605400D02*
X162204400Y-69799200D01*
X154889200Y-70358000D02*
X157886400Y-68605400D01*
%TO.N,Net-(D5-Pad2)*%
X132082500Y-82089478D02*
X135636000Y-80010000D01*
%TO.N,Net-(D4-Pad2)*%
X143510000Y-90119200D02*
X143507558Y-86029800D01*
%TO.N,Net-(D3-Pad2)*%
X156210000Y-84241705D02*
X152651558Y-82219800D01*
%TO.N,Net-(D2-Pad2)*%
X157477500Y-70310523D02*
X153924000Y-72390000D01*
%TO.N,Net-(D1-Pad2)*%
X146050000Y-62280800D02*
X146052443Y-66370200D01*
%TO.N,Net-(D6-Pad2)*%
X133347500Y-68119478D02*
X136908443Y-70180200D01*
%TD*%
%TA.AperFunction,Conductor*%
%TO.N,GND*%
G36*
X148820032Y-56404994D02*
G01*
X148836353Y-56408163D01*
X148863646Y-56417769D01*
X148888802Y-56431029D01*
X148907155Y-56443519D01*
X148914824Y-56450109D01*
X148920306Y-56455191D01*
X151042769Y-58577655D01*
X151050969Y-58586954D01*
X151069593Y-58610946D01*
X151069990Y-58611458D01*
X151083491Y-58634865D01*
X151091160Y-58653721D01*
X151098002Y-58681560D01*
X151099604Y-58698250D01*
X151098243Y-58726573D01*
X151095074Y-58742893D01*
X151085467Y-58770188D01*
X151081479Y-58777755D01*
X151072210Y-58795338D01*
X151059720Y-58813693D01*
X151053130Y-58821362D01*
X151048048Y-58826844D01*
X147513648Y-62361244D01*
X147511804Y-62362974D01*
X147508075Y-62365574D01*
X147497784Y-62376937D01*
X147494435Y-62380457D01*
X147483699Y-62391193D01*
X147481283Y-62395036D01*
X147479614Y-62396999D01*
X147426467Y-62455684D01*
X147420637Y-62461350D01*
X147418919Y-62463193D01*
X147414661Y-62466834D01*
X147411331Y-62471332D01*
X147409919Y-62473239D01*
X147403742Y-62480774D01*
X147402240Y-62482433D01*
X147402237Y-62482438D01*
X147398509Y-62486554D01*
X147395789Y-62491399D01*
X147394437Y-62493277D01*
X147389928Y-62500243D01*
X147354967Y-62547468D01*
X147342891Y-62563780D01*
X147337746Y-62569872D01*
X147336132Y-62571986D01*
X147332254Y-62576023D01*
X147328121Y-62582931D01*
X147322743Y-62590995D01*
X147318054Y-62597328D01*
X147315822Y-62602422D01*
X147314600Y-62604530D01*
X147310874Y-62611756D01*
X147301162Y-62627988D01*
X147255062Y-62668213D01*
X147194120Y-62673660D01*
X147141615Y-62642246D01*
X147117602Y-62585969D01*
X147122200Y-62547526D01*
X147122160Y-62547516D01*
X147122242Y-62547173D01*
X147122462Y-62545337D01*
X147123218Y-62543109D01*
X147123219Y-62543106D01*
X147124678Y-62538807D01*
X147126756Y-62524480D01*
X147146451Y-62388638D01*
X147153700Y-62338642D01*
X147155215Y-62280800D01*
X147136708Y-62079391D01*
X147081807Y-61884726D01*
X146992351Y-61703327D01*
X146900002Y-61579657D01*
X146874051Y-61544904D01*
X146874050Y-61544903D01*
X146871335Y-61541267D01*
X146722812Y-61403974D01*
X146700125Y-61389659D01*
X146555594Y-61298467D01*
X146551757Y-61296046D01*
X146363898Y-61221098D01*
X146165526Y-61181639D01*
X146065930Y-61180335D01*
X145967826Y-61179051D01*
X145967821Y-61179051D01*
X145963286Y-61178992D01*
X145958813Y-61179761D01*
X145958808Y-61179761D01*
X145861511Y-61196480D01*
X145763949Y-61213244D01*
X145574193Y-61283249D01*
X145400371Y-61386662D01*
X145396956Y-61389657D01*
X145396953Y-61389659D01*
X145380630Y-61403974D01*
X145248305Y-61520020D01*
X145245497Y-61523582D01*
X145146577Y-61649063D01*
X145123089Y-61678857D01*
X145028914Y-61857853D01*
X145027569Y-61862184D01*
X145027568Y-61862187D01*
X144979015Y-62018557D01*
X144968937Y-62051013D01*
X144945164Y-62251869D01*
X144945461Y-62256397D01*
X144958068Y-62448745D01*
X144958392Y-62453694D01*
X144959508Y-62458087D01*
X144959508Y-62458089D01*
X145007062Y-62645334D01*
X145008178Y-62649728D01*
X145092856Y-62833407D01*
X145209588Y-62998580D01*
X145354466Y-63139713D01*
X145522637Y-63252082D01*
X145557225Y-63266942D01*
X145665251Y-63313354D01*
X145711252Y-63353696D01*
X145725171Y-63404255D01*
X145725333Y-63675472D01*
X145726334Y-65351649D01*
X145707461Y-65409851D01*
X145673200Y-65439442D01*
X145501955Y-65528967D01*
X145498186Y-65531997D01*
X145498185Y-65531998D01*
X145488459Y-65539818D01*
X145349043Y-65651911D01*
X145322629Y-65683390D01*
X145226032Y-65798510D01*
X145226029Y-65798514D01*
X145222923Y-65802216D01*
X145128399Y-65974154D01*
X145126935Y-65978768D01*
X145126934Y-65978771D01*
X145073761Y-66146393D01*
X145069071Y-66161178D01*
X145047200Y-66356163D01*
X145063618Y-66551683D01*
X145064951Y-66556331D01*
X145064951Y-66556332D01*
X145106369Y-66700771D01*
X145117701Y-66740291D01*
X145119916Y-66744601D01*
X145205174Y-66910496D01*
X145205177Y-66910500D01*
X145207387Y-66914801D01*
X145329261Y-67068569D01*
X145332948Y-67071707D01*
X145332950Y-67071709D01*
X145474993Y-67192597D01*
X145474998Y-67192600D01*
X145478681Y-67195735D01*
X145482903Y-67198095D01*
X145482908Y-67198098D01*
X145575031Y-67249583D01*
X145649956Y-67291457D01*
X145734955Y-67319075D01*
X145831956Y-67350593D01*
X145831959Y-67350594D01*
X145836561Y-67352089D01*
X146031389Y-67375321D01*
X146036211Y-67374950D01*
X146036214Y-67374950D01*
X146222191Y-67360640D01*
X146222196Y-67360639D01*
X146227019Y-67360268D01*
X146415999Y-67307503D01*
X146420312Y-67305324D01*
X146420318Y-67305322D01*
X146586811Y-67221220D01*
X146586813Y-67221218D01*
X146591132Y-67219037D01*
X146604459Y-67208625D01*
X146741930Y-67101222D01*
X146741934Y-67101218D01*
X146745746Y-67098240D01*
X146759353Y-67082477D01*
X146870788Y-66953377D01*
X146870790Y-66953375D01*
X146873952Y-66949711D01*
X146906878Y-66891751D01*
X146952060Y-66850495D01*
X147012864Y-66843675D01*
X147066064Y-66873897D01*
X147091340Y-66929618D01*
X147091957Y-66940653D01*
X147091957Y-70987793D01*
X147091406Y-70996611D01*
X147091383Y-70998558D01*
X147090685Y-71004116D01*
X147091250Y-71009685D01*
X147091250Y-71009688D01*
X147091451Y-71011665D01*
X147091957Y-71021659D01*
X147091957Y-71029079D01*
X147093192Y-71034496D01*
X147093389Y-71036241D01*
X147094844Y-71045108D01*
X147102919Y-71124693D01*
X147103108Y-71126766D01*
X147104694Y-71146526D01*
X147105343Y-71148581D01*
X147105543Y-71150548D01*
X147107001Y-71154870D01*
X147107002Y-71154873D01*
X147111894Y-71169374D01*
X147112486Y-71171183D01*
X147139652Y-71257147D01*
X147140326Y-71259379D01*
X147145673Y-71277868D01*
X147146894Y-71280064D01*
X147147598Y-71282291D01*
X147150205Y-71286737D01*
X147150208Y-71286743D01*
X147157385Y-71298983D01*
X147158506Y-71300946D01*
X147200206Y-71375935D01*
X147201649Y-71378626D01*
X147207459Y-71389878D01*
X147207462Y-71389882D01*
X147210029Y-71394854D01*
X147212062Y-71397254D01*
X147213504Y-71399848D01*
X147220873Y-71408053D01*
X147225760Y-71413495D01*
X147227652Y-71415665D01*
X147281062Y-71478734D01*
X147283339Y-71481524D01*
X147294074Y-71495186D01*
X147296983Y-71497532D01*
X147299279Y-71500244D01*
X147303729Y-71503584D01*
X147303734Y-71503589D01*
X147313201Y-71510695D01*
X147315927Y-71512816D01*
X147378776Y-71563516D01*
X147381793Y-71566051D01*
X147390261Y-71573457D01*
X147390264Y-71573459D01*
X147394478Y-71577145D01*
X147398047Y-71579061D01*
X147401062Y-71581493D01*
X147413741Y-71587689D01*
X147416276Y-71588928D01*
X147419626Y-71590645D01*
X147490330Y-71628595D01*
X147493715Y-71630499D01*
X147502011Y-71635380D01*
X147508317Y-71639090D01*
X147512117Y-71640290D01*
X147515471Y-71642090D01*
X147520832Y-71643564D01*
X147520831Y-71643564D01*
X147531913Y-71646612D01*
X147535465Y-71647661D01*
X147573385Y-71659632D01*
X147612916Y-71672112D01*
X147616176Y-71673204D01*
X147632780Y-71679091D01*
X147636316Y-71679498D01*
X147639542Y-71680517D01*
X147657197Y-71681959D01*
X147660419Y-71682276D01*
X147743510Y-71691851D01*
X147746302Y-71692213D01*
X147753353Y-71693231D01*
X147759164Y-71694071D01*
X147759166Y-71694071D01*
X147764704Y-71694871D01*
X147767620Y-71694630D01*
X147770349Y-71694944D01*
X147775868Y-71694337D01*
X147775870Y-71694337D01*
X147788899Y-71692904D01*
X147791555Y-71692648D01*
X147878435Y-71685456D01*
X147880696Y-71685295D01*
X147894977Y-71684442D01*
X147894982Y-71684441D01*
X147900142Y-71684133D01*
X147902393Y-71683472D01*
X147904554Y-71683293D01*
X147923214Y-71677380D01*
X147925218Y-71676769D01*
X148008338Y-71652355D01*
X148013640Y-71650956D01*
X148027740Y-71647654D01*
X148032277Y-71645429D01*
X148032629Y-71645314D01*
X148032950Y-71645190D01*
X148033343Y-71645011D01*
X148038045Y-71643630D01*
X148042891Y-71640920D01*
X148042895Y-71640918D01*
X148049776Y-71637069D01*
X148050734Y-71636533D01*
X148055436Y-71634067D01*
X148087407Y-71618383D01*
X148090752Y-71616742D01*
X148094836Y-71614853D01*
X148096667Y-71614056D01*
X148102017Y-71612415D01*
X148112967Y-71606093D01*
X148118829Y-71602968D01*
X148130025Y-71597475D01*
X148134345Y-71593978D01*
X148136206Y-71592790D01*
X148139986Y-71590493D01*
X151633802Y-69573338D01*
X151693650Y-69560617D01*
X151749546Y-69585504D01*
X151780139Y-69638492D01*
X151773743Y-69699342D01*
X151770056Y-69706769D01*
X151732304Y-69775440D01*
X151727513Y-69784154D01*
X151726049Y-69788768D01*
X151726048Y-69788771D01*
X151702179Y-69864017D01*
X151668185Y-69971178D01*
X151667645Y-69975990D01*
X151667645Y-69975991D01*
X151656179Y-70078218D01*
X151646314Y-70166163D01*
X151653438Y-70251003D01*
X151662112Y-70354295D01*
X151662732Y-70361683D01*
X151664065Y-70366331D01*
X151664065Y-70366332D01*
X151708736Y-70522115D01*
X151716815Y-70550291D01*
X151719030Y-70554601D01*
X151804288Y-70720496D01*
X151804291Y-70720500D01*
X151806501Y-70724801D01*
X151928375Y-70878569D01*
X151932062Y-70881707D01*
X151932064Y-70881709D01*
X152074107Y-71002597D01*
X152074112Y-71002600D01*
X152077795Y-71005735D01*
X152082017Y-71008095D01*
X152082022Y-71008098D01*
X152187908Y-71067275D01*
X152249070Y-71101457D01*
X152338039Y-71130365D01*
X152431070Y-71160593D01*
X152431073Y-71160594D01*
X152435675Y-71162089D01*
X152630503Y-71185321D01*
X152635325Y-71184950D01*
X152635328Y-71184950D01*
X152821305Y-71170640D01*
X152821310Y-71170639D01*
X152826133Y-71170268D01*
X153015113Y-71117503D01*
X153019426Y-71115324D01*
X153019432Y-71115322D01*
X153185925Y-71031220D01*
X153185927Y-71031218D01*
X153190246Y-71029037D01*
X153197301Y-71023525D01*
X153341044Y-70911222D01*
X153341048Y-70911218D01*
X153344860Y-70908240D01*
X153354825Y-70896696D01*
X153469902Y-70763377D01*
X153469904Y-70763375D01*
X153473066Y-70759711D01*
X153488500Y-70732542D01*
X153567593Y-70593315D01*
X153567594Y-70593312D01*
X153569982Y-70589109D01*
X153575399Y-70572827D01*
X153630388Y-70407523D01*
X153630388Y-70407521D01*
X153631915Y-70402932D01*
X153636779Y-70364434D01*
X153647244Y-70281592D01*
X153656506Y-70208271D01*
X153656592Y-70202152D01*
X153656831Y-70184981D01*
X153656898Y-70180200D01*
X153655995Y-70170983D01*
X153643827Y-70046897D01*
X153637751Y-69984928D01*
X153581041Y-69797094D01*
X153508815Y-69661256D01*
X153491200Y-69628127D01*
X153491198Y-69628123D01*
X153488927Y-69623853D01*
X153485503Y-69619654D01*
X153367979Y-69475555D01*
X153367978Y-69475554D01*
X153364918Y-69471802D01*
X153275828Y-69398101D01*
X153217464Y-69349818D01*
X153217463Y-69349817D01*
X153213737Y-69346735D01*
X153041142Y-69253413D01*
X152853709Y-69195393D01*
X152848897Y-69194887D01*
X152848896Y-69194887D01*
X152802086Y-69189967D01*
X152678504Y-69176978D01*
X152622609Y-69152091D01*
X152592016Y-69099103D01*
X152598412Y-69038253D01*
X152639353Y-68992783D01*
X154659135Y-67826662D01*
X154718983Y-67813941D01*
X154774879Y-67838828D01*
X154793979Y-67864938D01*
X154795023Y-67864336D01*
X155120032Y-68427268D01*
X155129945Y-68436194D01*
X155135011Y-68436726D01*
X155846951Y-68025687D01*
X155855875Y-68015775D01*
X155856408Y-68010708D01*
X155445371Y-67298770D01*
X155435457Y-67289844D01*
X155414941Y-67287688D01*
X155376405Y-67289708D01*
X155325090Y-67256385D01*
X155303162Y-67199264D01*
X155311229Y-67154624D01*
X155339267Y-67090103D01*
X155342980Y-67082856D01*
X155344014Y-67080567D01*
X155346883Y-67075751D01*
X155349324Y-67068162D01*
X155352767Y-67059034D01*
X155353652Y-67056998D01*
X155353654Y-67056992D01*
X155355868Y-67051897D01*
X155356894Y-67046431D01*
X155357577Y-67044207D01*
X155359069Y-67038329D01*
X155881592Y-67038329D01*
X156292631Y-67750269D01*
X156302543Y-67759193D01*
X156307610Y-67759726D01*
X157019548Y-67348689D01*
X157028474Y-67338775D01*
X157029006Y-67333709D01*
X156702710Y-66768547D01*
X156697071Y-66760678D01*
X156667492Y-66726949D01*
X156652314Y-66715302D01*
X156598445Y-66688737D01*
X156579973Y-66683787D01*
X156520036Y-66679859D01*
X156501073Y-66682355D01*
X156458586Y-66696778D01*
X156449773Y-66700771D01*
X155891050Y-67023350D01*
X155882124Y-67033263D01*
X155881592Y-67038329D01*
X155359069Y-67038329D01*
X155359613Y-67036186D01*
X155383901Y-66960695D01*
X155384754Y-66958307D01*
X155386882Y-66954296D01*
X155390856Y-66939466D01*
X155392222Y-66934829D01*
X155396872Y-66920375D01*
X155397267Y-66915850D01*
X155397853Y-66913352D01*
X155414696Y-66850495D01*
X156345404Y-63377046D01*
X156689638Y-62092348D01*
X156693590Y-62080599D01*
X156705302Y-62051869D01*
X156718822Y-62028472D01*
X156723327Y-62022678D01*
X156731320Y-62012399D01*
X156752005Y-61992558D01*
X156765657Y-61982826D01*
X156790873Y-61969841D01*
X156806590Y-61964426D01*
X156835027Y-61959099D01*
X156859703Y-61958149D01*
X156863434Y-61958005D01*
X156885573Y-61959644D01*
X156895528Y-61961520D01*
X156902795Y-61963176D01*
X157331400Y-62078020D01*
X159802135Y-62740052D01*
X159813884Y-62744004D01*
X159842619Y-62755718D01*
X159866018Y-62769240D01*
X159882087Y-62781735D01*
X159901928Y-62802419D01*
X159911660Y-62816070D01*
X159924648Y-62841289D01*
X159930062Y-62857002D01*
X159935389Y-62885444D01*
X159935584Y-62890522D01*
X159936482Y-62913854D01*
X159934843Y-62935990D01*
X159932970Y-62945931D01*
X159931310Y-62953218D01*
X159790933Y-63477113D01*
X158721458Y-67468447D01*
X158720181Y-67472106D01*
X158720366Y-67472163D01*
X158718715Y-67477512D01*
X158716468Y-67482649D01*
X158714349Y-67493892D01*
X158712692Y-67501161D01*
X158711216Y-67506668D01*
X158711215Y-67506673D01*
X158709778Y-67512037D01*
X158709570Y-67517591D01*
X158708742Y-67523083D01*
X158708557Y-67523055D01*
X158708127Y-67526907D01*
X158698360Y-67578727D01*
X158697006Y-67585912D01*
X158695357Y-67593155D01*
X158694176Y-67597571D01*
X158692378Y-67604295D01*
X158692180Y-67609895D01*
X158691921Y-67611630D01*
X158691766Y-67613710D01*
X158690737Y-67619172D01*
X158691032Y-67626924D01*
X158691178Y-67630779D01*
X158691187Y-67638031D01*
X158688637Y-67710247D01*
X158688315Y-67715461D01*
X158687498Y-67724711D01*
X158687498Y-67724716D01*
X158687006Y-67730288D01*
X158687692Y-67735232D01*
X158687730Y-67735970D01*
X158687560Y-67740780D01*
X158688604Y-67746237D01*
X158690372Y-67755481D01*
X158691194Y-67760470D01*
X158705859Y-67866148D01*
X158706242Y-67869271D01*
X158708157Y-67887255D01*
X158709213Y-67890317D01*
X158709634Y-67893350D01*
X158711601Y-67898542D01*
X158716077Y-67910356D01*
X158717082Y-67913133D01*
X158726428Y-67940232D01*
X158752304Y-68015256D01*
X158753359Y-68018496D01*
X158758536Y-68035377D01*
X158760293Y-68038420D01*
X158761382Y-68041578D01*
X158767106Y-68050781D01*
X158770755Y-68056649D01*
X158772422Y-68059431D01*
X158826032Y-68152286D01*
X158827661Y-68155222D01*
X158835976Y-68170845D01*
X158838281Y-68173499D01*
X158839951Y-68176392D01*
X158852066Y-68189453D01*
X158854184Y-68191813D01*
X158925010Y-68273371D01*
X158927036Y-68275781D01*
X158934905Y-68285447D01*
X158934908Y-68285450D01*
X158938447Y-68289797D01*
X158941001Y-68291785D01*
X158943011Y-68294100D01*
X158947491Y-68297377D01*
X158947497Y-68297382D01*
X158957708Y-68304849D01*
X158960070Y-68306631D01*
X158990700Y-68330477D01*
X159044241Y-68372159D01*
X159048279Y-68375478D01*
X159055287Y-68381554D01*
X159055291Y-68381557D01*
X159059523Y-68385226D01*
X159063921Y-68387562D01*
X159064554Y-68387972D01*
X159068348Y-68390926D01*
X159073378Y-68393277D01*
X159076778Y-68395359D01*
X159116530Y-68441871D01*
X159121350Y-68502867D01*
X159089398Y-68555046D01*
X159032878Y-68578479D01*
X158998700Y-68575207D01*
X157988232Y-68295843D01*
X157981290Y-68293645D01*
X157941994Y-68279588D01*
X157932644Y-68279640D01*
X157906002Y-68279787D01*
X157896045Y-68279341D01*
X157868831Y-68276742D01*
X157868827Y-68276742D01*
X157860206Y-68275919D01*
X157851819Y-68278095D01*
X157843785Y-68278734D01*
X157835869Y-68280175D01*
X157827207Y-68280223D01*
X157800038Y-68290282D01*
X157793453Y-68292720D01*
X157783944Y-68295706D01*
X157749097Y-68304747D01*
X157741965Y-68309657D01*
X157741963Y-68309658D01*
X157723275Y-68322524D01*
X157664623Y-68339948D01*
X157606931Y-68319570D01*
X157581399Y-68290480D01*
X157294969Y-67794368D01*
X157285055Y-67785442D01*
X157279989Y-67784910D01*
X156114530Y-68457788D01*
X155395452Y-68872948D01*
X155386526Y-68882861D01*
X155385994Y-68887927D01*
X155683154Y-69402625D01*
X155695875Y-69462473D01*
X155670988Y-69518369D01*
X155647391Y-69537586D01*
X155219127Y-69788012D01*
X155204835Y-69796369D01*
X155145058Y-69809420D01*
X155116976Y-69802371D01*
X155051959Y-69775440D01*
X155045962Y-69772956D01*
X154889200Y-69752318D01*
X154732438Y-69772956D01*
X154586359Y-69833464D01*
X154460918Y-69929718D01*
X154364664Y-70055159D01*
X154304156Y-70201238D01*
X154283518Y-70358000D01*
X154304156Y-70514762D01*
X154364664Y-70660841D01*
X154460918Y-70786282D01*
X154586359Y-70882536D01*
X154732438Y-70943044D01*
X154889200Y-70963682D01*
X155045962Y-70943044D01*
X155192041Y-70882536D01*
X155317482Y-70786282D01*
X155413736Y-70660841D01*
X155474244Y-70514762D01*
X155485288Y-70430871D01*
X155511629Y-70375646D01*
X155533468Y-70358331D01*
X155533951Y-70358049D01*
X156201560Y-69967668D01*
X156262424Y-69932078D01*
X156322201Y-69919027D01*
X156378233Y-69943604D01*
X156409118Y-69996422D01*
X156406944Y-70046897D01*
X156400677Y-70067082D01*
X156396437Y-70080736D01*
X156372664Y-70281592D01*
X156372961Y-70286120D01*
X156381322Y-70413684D01*
X156385892Y-70483417D01*
X156387009Y-70487814D01*
X156387009Y-70487816D01*
X156387186Y-70488514D01*
X156387166Y-70488811D01*
X156387719Y-70492300D01*
X156386929Y-70492425D01*
X156383179Y-70549568D01*
X156341232Y-70598320D01*
X154636096Y-71596150D01*
X154576323Y-71609222D01*
X154522989Y-71586986D01*
X154489907Y-71559618D01*
X154489905Y-71559617D01*
X154486180Y-71556535D01*
X154347491Y-71481546D01*
X154317839Y-71465513D01*
X154317838Y-71465513D01*
X154313585Y-71463213D01*
X154126152Y-71405193D01*
X154121342Y-71404687D01*
X154121340Y-71404687D01*
X153935835Y-71385189D01*
X153935833Y-71385189D01*
X153931019Y-71384683D01*
X153873936Y-71389878D01*
X153740438Y-71402027D01*
X153740435Y-71402028D01*
X153735618Y-71402466D01*
X153730976Y-71403832D01*
X153730972Y-71403833D01*
X153552040Y-71456496D01*
X153552037Y-71456497D01*
X153547393Y-71457864D01*
X153373512Y-71548767D01*
X153369743Y-71551797D01*
X153369742Y-71551798D01*
X153350740Y-71567076D01*
X153220600Y-71671711D01*
X153201616Y-71694336D01*
X153097589Y-71818310D01*
X153097586Y-71818314D01*
X153094480Y-71822016D01*
X152999956Y-71993954D01*
X152998492Y-71998568D01*
X152998491Y-71998571D01*
X152963077Y-72110211D01*
X152940628Y-72180978D01*
X152940088Y-72185790D01*
X152940088Y-72185791D01*
X152923033Y-72337845D01*
X152918757Y-72375963D01*
X152922060Y-72415296D01*
X152928657Y-72493855D01*
X152935175Y-72571483D01*
X152936508Y-72576131D01*
X152936508Y-72576132D01*
X152975454Y-72711950D01*
X152989258Y-72760091D01*
X152991473Y-72764401D01*
X153076731Y-72930296D01*
X153076734Y-72930300D01*
X153078944Y-72934601D01*
X153081951Y-72938395D01*
X153089019Y-72947313D01*
X153200818Y-73088369D01*
X153204505Y-73091507D01*
X153204507Y-73091509D01*
X153346550Y-73212397D01*
X153346555Y-73212400D01*
X153350238Y-73215535D01*
X153354460Y-73217895D01*
X153354465Y-73217898D01*
X153427063Y-73258471D01*
X153521513Y-73311257D01*
X153607509Y-73339199D01*
X153703513Y-73370393D01*
X153703516Y-73370394D01*
X153708118Y-73371889D01*
X153902946Y-73395121D01*
X153902733Y-73396906D01*
X153953607Y-73414625D01*
X153988523Y-73464870D01*
X153987238Y-73526041D01*
X153950243Y-73574775D01*
X153943250Y-73579213D01*
X153622062Y-73764651D01*
X150449883Y-75596110D01*
X150441987Y-75600033D01*
X150440274Y-75600995D01*
X150435110Y-75603170D01*
X150428941Y-75607618D01*
X150420553Y-75613043D01*
X150414128Y-75616753D01*
X150410054Y-75620532D01*
X150408638Y-75621577D01*
X150401692Y-75627266D01*
X150336796Y-75674060D01*
X150335091Y-75675263D01*
X150322796Y-75683740D01*
X150322792Y-75683743D01*
X150318785Y-75686506D01*
X150317331Y-75688095D01*
X150315725Y-75689253D01*
X150312710Y-75692678D01*
X150302584Y-75704181D01*
X150301308Y-75705603D01*
X150240494Y-75772056D01*
X150238827Y-75773833D01*
X150225527Y-75787667D01*
X150224238Y-75789818D01*
X150222660Y-75791543D01*
X150213065Y-75808424D01*
X150211981Y-75810281D01*
X150167860Y-75883940D01*
X150166263Y-75886514D01*
X150156393Y-75901893D01*
X150155329Y-75904859D01*
X150153806Y-75907401D01*
X150148118Y-75924834D01*
X150147206Y-75927496D01*
X150122849Y-75995373D01*
X150119258Y-76005379D01*
X150117979Y-76008748D01*
X150111527Y-76024843D01*
X150110950Y-76028529D01*
X150109747Y-76031882D01*
X150109081Y-76037395D01*
X150109079Y-76037402D01*
X150107652Y-76049206D01*
X150107178Y-76052630D01*
X150094705Y-76132341D01*
X150094018Y-76136225D01*
X150090748Y-76152776D01*
X150090873Y-76156826D01*
X150090275Y-76160650D01*
X150090658Y-76166187D01*
X150090658Y-76166189D01*
X150091443Y-76177535D01*
X150091632Y-76181302D01*
X150094116Y-76261505D01*
X150094160Y-76265382D01*
X150094021Y-76282337D01*
X150094882Y-76286228D01*
X150095000Y-76290031D01*
X150096403Y-76295407D01*
X150096403Y-76295409D01*
X150099302Y-76306520D01*
X150100170Y-76310120D01*
X150108794Y-76349082D01*
X150117722Y-76389422D01*
X150118410Y-76392811D01*
X150121611Y-76410122D01*
X150123027Y-76413389D01*
X150123758Y-76416694D01*
X150126137Y-76421719D01*
X150126138Y-76421723D01*
X150131337Y-76432707D01*
X150132695Y-76435704D01*
X150165917Y-76512383D01*
X150167000Y-76514984D01*
X150173907Y-76532267D01*
X150175575Y-76534672D01*
X150176665Y-76537189D01*
X150179953Y-76541670D01*
X150179957Y-76541676D01*
X150187715Y-76552247D01*
X150189261Y-76554414D01*
X150238928Y-76626053D01*
X150240202Y-76627936D01*
X150250927Y-76644191D01*
X150252625Y-76645810D01*
X150253860Y-76647591D01*
X150268354Y-76660834D01*
X150269824Y-76662206D01*
X150332558Y-76722013D01*
X150336421Y-76725906D01*
X150346316Y-76736450D01*
X150350508Y-76739264D01*
X150350778Y-76739506D01*
X150351069Y-76739740D01*
X150351405Y-76739980D01*
X150354956Y-76743366D01*
X150359734Y-76746212D01*
X150367458Y-76750813D01*
X150371966Y-76753666D01*
X150404567Y-76775548D01*
X150408245Y-76778139D01*
X150409876Y-76779344D01*
X150413974Y-76783160D01*
X150424913Y-76789475D01*
X150430574Y-76793004D01*
X150436296Y-76796845D01*
X150436300Y-76796847D01*
X150440914Y-76799944D01*
X150446103Y-76801938D01*
X150448079Y-76802964D01*
X150451951Y-76805086D01*
X153946453Y-78822637D01*
X153987394Y-78868107D01*
X153993790Y-78928957D01*
X153963197Y-78981945D01*
X153905926Y-79006967D01*
X153823110Y-79014504D01*
X153740439Y-79022027D01*
X153740436Y-79022027D01*
X153735618Y-79022466D01*
X153730976Y-79023832D01*
X153730972Y-79023833D01*
X153552040Y-79076496D01*
X153552037Y-79076497D01*
X153547393Y-79077864D01*
X153373512Y-79168767D01*
X153369743Y-79171797D01*
X153369742Y-79171798D01*
X153360016Y-79179618D01*
X153220600Y-79291711D01*
X153201543Y-79314423D01*
X153097589Y-79438310D01*
X153097586Y-79438314D01*
X153094480Y-79442016D01*
X152999956Y-79613954D01*
X152998492Y-79618568D01*
X152998491Y-79618571D01*
X152969040Y-79711412D01*
X152940628Y-79800978D01*
X152918757Y-79995963D01*
X152935175Y-80191483D01*
X152936508Y-80196131D01*
X152936508Y-80196132D01*
X152957448Y-80269156D01*
X152989258Y-80380091D01*
X152991473Y-80384401D01*
X153076731Y-80550296D01*
X153076734Y-80550300D01*
X153078944Y-80554601D01*
X153200818Y-80708369D01*
X153204505Y-80711507D01*
X153204507Y-80711509D01*
X153346550Y-80832397D01*
X153346555Y-80832400D01*
X153350238Y-80835535D01*
X153354460Y-80837895D01*
X153354465Y-80837898D01*
X153442603Y-80887156D01*
X153521513Y-80931257D01*
X153585618Y-80952086D01*
X153703513Y-80990393D01*
X153703516Y-80990394D01*
X153708118Y-80991889D01*
X153902946Y-81015121D01*
X153907768Y-81014750D01*
X153907771Y-81014750D01*
X154093748Y-81000440D01*
X154093753Y-81000439D01*
X154098576Y-81000068D01*
X154287556Y-80947303D01*
X154291869Y-80945124D01*
X154291875Y-80945122D01*
X154458368Y-80861020D01*
X154458370Y-80861018D01*
X154462689Y-80858837D01*
X154474013Y-80849990D01*
X154613487Y-80741022D01*
X154613491Y-80741018D01*
X154617303Y-80738040D01*
X154620947Y-80733819D01*
X154742345Y-80593177D01*
X154742347Y-80593175D01*
X154745509Y-80589511D01*
X154747902Y-80585299D01*
X154840036Y-80423115D01*
X154840037Y-80423112D01*
X154842425Y-80418909D01*
X154844310Y-80413244D01*
X154902831Y-80237323D01*
X154902831Y-80237321D01*
X154904358Y-80232732D01*
X154928949Y-80038071D01*
X154929341Y-80010000D01*
X154928856Y-80005046D01*
X154910666Y-79819546D01*
X154910194Y-79814728D01*
X154853484Y-79626894D01*
X154851213Y-79622622D01*
X154851211Y-79622617D01*
X154800298Y-79526864D01*
X154789674Y-79466609D01*
X154816496Y-79411616D01*
X154870519Y-79382891D01*
X154931109Y-79391407D01*
X154937202Y-79394646D01*
X156952495Y-80558175D01*
X156993435Y-80603644D01*
X156999831Y-80664494D01*
X156986358Y-80695020D01*
X156987221Y-80695518D01*
X156662212Y-81258451D01*
X156659439Y-81271496D01*
X156661512Y-81276152D01*
X157373450Y-81687190D01*
X157386495Y-81689963D01*
X157391151Y-81687890D01*
X157802190Y-80975951D01*
X157804963Y-80962905D01*
X157793427Y-80936994D01*
X157787031Y-80876144D01*
X157817624Y-80823156D01*
X157872639Y-80798366D01*
X157949043Y-80789644D01*
X157957173Y-80789237D01*
X157959675Y-80788988D01*
X157965272Y-80789064D01*
X157970746Y-80787884D01*
X157973057Y-80787386D01*
X157982688Y-80785802D01*
X157984601Y-80785584D01*
X157984908Y-80785549D01*
X157984909Y-80785549D01*
X157990426Y-80784919D01*
X157995667Y-80783077D01*
X157997914Y-80782561D01*
X158005915Y-80780303D01*
X158083417Y-80763596D01*
X158085917Y-80763140D01*
X158090457Y-80762977D01*
X158105257Y-80759012D01*
X158110013Y-80757863D01*
X158119392Y-80755841D01*
X158124828Y-80754669D01*
X158128946Y-80752747D01*
X158131407Y-80752004D01*
X162952411Y-79460221D01*
X162964556Y-79457771D01*
X162977786Y-79455954D01*
X162995294Y-79453549D01*
X163022315Y-79453560D01*
X163042477Y-79456346D01*
X163070009Y-79464341D01*
X163085264Y-79471299D01*
X163109114Y-79486641D01*
X163121660Y-79497542D01*
X163140493Y-79519508D01*
X163155643Y-79543559D01*
X163165301Y-79563568D01*
X163168654Y-79573131D01*
X163170857Y-79580264D01*
X163947725Y-82479574D01*
X163950178Y-82491729D01*
X163954400Y-82522475D01*
X163954388Y-82549494D01*
X163952310Y-82564532D01*
X163951602Y-82569656D01*
X163943608Y-82597185D01*
X163936650Y-82612441D01*
X163921305Y-82636295D01*
X163910405Y-82648839D01*
X163888439Y-82667672D01*
X163864382Y-82682825D01*
X163844393Y-82692474D01*
X163834819Y-82695832D01*
X163827705Y-82698030D01*
X160789649Y-83512074D01*
X159312473Y-83907882D01*
X159308666Y-83908601D01*
X159308710Y-83908793D01*
X159303248Y-83910039D01*
X159297682Y-83910661D01*
X159286907Y-83914440D01*
X159279770Y-83916644D01*
X159274257Y-83918121D01*
X159274250Y-83918124D01*
X159268886Y-83919561D01*
X159263975Y-83922156D01*
X159258799Y-83924187D01*
X159258732Y-83924015D01*
X159255170Y-83925570D01*
X159198507Y-83945443D01*
X159191433Y-83947630D01*
X159180287Y-83950622D01*
X159175339Y-83953251D01*
X159173707Y-83953894D01*
X159171832Y-83954798D01*
X159166582Y-83956639D01*
X159156744Y-83962828D01*
X159150486Y-83966452D01*
X159086656Y-84000360D01*
X159081982Y-84002687D01*
X159068489Y-84008964D01*
X159064552Y-84012030D01*
X159063920Y-84012438D01*
X159059680Y-84014690D01*
X159048968Y-84023945D01*
X159048368Y-84024464D01*
X159044458Y-84027672D01*
X158960248Y-84093229D01*
X158957783Y-84095086D01*
X158943126Y-84105766D01*
X158941002Y-84108212D01*
X158938587Y-84110092D01*
X158935072Y-84114394D01*
X158935067Y-84114399D01*
X158927074Y-84124182D01*
X158925160Y-84126454D01*
X158854345Y-84208000D01*
X158852063Y-84210538D01*
X158852016Y-84210589D01*
X158840040Y-84223455D01*
X158838284Y-84226497D01*
X158836091Y-84229022D01*
X158827694Y-84244733D01*
X158826166Y-84247484D01*
X158772532Y-84340380D01*
X158770804Y-84343256D01*
X158761440Y-84358254D01*
X158760293Y-84361579D01*
X158758624Y-84364470D01*
X158753384Y-84381450D01*
X158752376Y-84384535D01*
X158717176Y-84486595D01*
X158716103Y-84489551D01*
X158711652Y-84501237D01*
X158711649Y-84501250D01*
X158709659Y-84506474D01*
X158709214Y-84509680D01*
X158708215Y-84512577D01*
X158707617Y-84518101D01*
X158706256Y-84530674D01*
X158705893Y-84533613D01*
X158694124Y-84618416D01*
X158691230Y-84639272D01*
X158690375Y-84644431D01*
X158687554Y-84659042D01*
X158687730Y-84664026D01*
X158687692Y-84664769D01*
X158687030Y-84669536D01*
X158688325Y-84684487D01*
X158688629Y-84689496D01*
X158691178Y-84761707D01*
X158691162Y-84769124D01*
X158690704Y-84780652D01*
X158691740Y-84786149D01*
X158691869Y-84787909D01*
X158692176Y-84789974D01*
X158692372Y-84795527D01*
X158695354Y-84806756D01*
X158696956Y-84813826D01*
X158708077Y-84872831D01*
X158708507Y-84876686D01*
X158708702Y-84876657D01*
X158709533Y-84882198D01*
X158709733Y-84887792D01*
X158711182Y-84893199D01*
X158711182Y-84893201D01*
X158712690Y-84898829D01*
X158714348Y-84906107D01*
X158715404Y-84911710D01*
X158715406Y-84911716D01*
X158716435Y-84917176D01*
X158718654Y-84922273D01*
X158720286Y-84927579D01*
X158720110Y-84927633D01*
X158721390Y-84931297D01*
X158831159Y-85340961D01*
X159927679Y-89433230D01*
X159929377Y-89439568D01*
X159931828Y-89451715D01*
X159933891Y-89466735D01*
X159936050Y-89482453D01*
X159936039Y-89509476D01*
X159933252Y-89529644D01*
X159925258Y-89557172D01*
X159918301Y-89572426D01*
X159902956Y-89596280D01*
X159892056Y-89608824D01*
X159870090Y-89627657D01*
X159846036Y-89642808D01*
X159826033Y-89652462D01*
X159816477Y-89655813D01*
X159809340Y-89658018D01*
X157872319Y-90177042D01*
X156910022Y-90434889D01*
X156897872Y-90437340D01*
X156867128Y-90441562D01*
X156840108Y-90441551D01*
X156819939Y-90438764D01*
X156792412Y-90430770D01*
X156777158Y-90423813D01*
X156753304Y-90408468D01*
X156740760Y-90397568D01*
X156721926Y-90375600D01*
X156706776Y-90351546D01*
X156697125Y-90331552D01*
X156693775Y-90322001D01*
X156691568Y-90314857D01*
X155397889Y-85486783D01*
X155397313Y-85484324D01*
X155396926Y-85479795D01*
X155394886Y-85473453D01*
X155392236Y-85465217D01*
X155390853Y-85460522D01*
X155388369Y-85451252D01*
X155388367Y-85451247D01*
X155386928Y-85445876D01*
X155384805Y-85441858D01*
X155383942Y-85439440D01*
X155367539Y-85388455D01*
X155359692Y-85364064D01*
X155357703Y-85356189D01*
X155356963Y-85353770D01*
X155355939Y-85348266D01*
X155353706Y-85343128D01*
X155353705Y-85343124D01*
X155352765Y-85340961D01*
X155349323Y-85331833D01*
X155346937Y-85324418D01*
X155344101Y-85319638D01*
X155343151Y-85317530D01*
X155339371Y-85310139D01*
X155339271Y-85309908D01*
X155307866Y-85237638D01*
X155305156Y-85230119D01*
X155304138Y-85227678D01*
X155302582Y-85222307D01*
X155298665Y-85215272D01*
X155294369Y-85206577D01*
X155293450Y-85204463D01*
X155293448Y-85204459D01*
X155291230Y-85199355D01*
X155287931Y-85194871D01*
X155286706Y-85192741D01*
X155282320Y-85185914D01*
X155244201Y-85117446D01*
X155240816Y-85110326D01*
X155239519Y-85107910D01*
X155237447Y-85102718D01*
X155234263Y-85098121D01*
X155233750Y-85097165D01*
X155222883Y-85036953D01*
X155249484Y-84981852D01*
X155303391Y-84952911D01*
X155364015Y-84961183D01*
X155390055Y-84979423D01*
X155401082Y-84990165D01*
X155514466Y-85100618D01*
X155682637Y-85212987D01*
X155868470Y-85292827D01*
X156065740Y-85337465D01*
X156267842Y-85345405D01*
X156284381Y-85343007D01*
X156463519Y-85317034D01*
X156463522Y-85317033D01*
X156468007Y-85316383D01*
X156563769Y-85283876D01*
X156655234Y-85252828D01*
X156655237Y-85252826D01*
X156659531Y-85251369D01*
X156836001Y-85152542D01*
X156991505Y-85023210D01*
X157120837Y-84867706D01*
X157219664Y-84691236D01*
X157221640Y-84685417D01*
X157255366Y-84586061D01*
X157284678Y-84499712D01*
X157286152Y-84489551D01*
X157307572Y-84341813D01*
X157313700Y-84299547D01*
X157315215Y-84241705D01*
X157314517Y-84234103D01*
X157297123Y-84044814D01*
X157296708Y-84040296D01*
X157241807Y-83845631D01*
X157152351Y-83664232D01*
X157031335Y-83502172D01*
X156882812Y-83364879D01*
X156860125Y-83350564D01*
X156715594Y-83259372D01*
X156711757Y-83256951D01*
X156523898Y-83182003D01*
X156325526Y-83142544D01*
X156225930Y-83141240D01*
X156127826Y-83139956D01*
X156127821Y-83139956D01*
X156123286Y-83139897D01*
X156118813Y-83140666D01*
X156118808Y-83140666D01*
X156023152Y-83157103D01*
X155923949Y-83174149D01*
X155734193Y-83244154D01*
X155560371Y-83347567D01*
X155556956Y-83350562D01*
X155556953Y-83350564D01*
X155509082Y-83392546D01*
X155452865Y-83416699D01*
X155394900Y-83404190D01*
X154896666Y-83121094D01*
X157155037Y-83121094D01*
X157157110Y-83125750D01*
X157722273Y-83452047D01*
X157731086Y-83456040D01*
X157773573Y-83470463D01*
X157792536Y-83472959D01*
X157852473Y-83469031D01*
X157870945Y-83464081D01*
X157924814Y-83437516D01*
X157939992Y-83425869D01*
X157969571Y-83392140D01*
X157975210Y-83384271D01*
X158297788Y-82825549D01*
X158300561Y-82812504D01*
X158298488Y-82807848D01*
X157586549Y-82396810D01*
X157573504Y-82394037D01*
X157568848Y-82396110D01*
X157157810Y-83108049D01*
X157155037Y-83121094D01*
X154896666Y-83121094D01*
X153694254Y-82437885D01*
X153653002Y-82392699D01*
X153647232Y-82354536D01*
X156049041Y-82354536D01*
X156052969Y-82414473D01*
X156057919Y-82432945D01*
X156084484Y-82486814D01*
X156096131Y-82501992D01*
X156129860Y-82531571D01*
X156137729Y-82537210D01*
X156696451Y-82859788D01*
X156709496Y-82862561D01*
X156714152Y-82860488D01*
X157125190Y-82148550D01*
X157127963Y-82135505D01*
X157125890Y-82130849D01*
X156810044Y-81948495D01*
X157832037Y-81948495D01*
X157834110Y-81953151D01*
X158546049Y-82364190D01*
X158559094Y-82366963D01*
X158563750Y-82364890D01*
X158890047Y-81799727D01*
X158894040Y-81790914D01*
X158908463Y-81748427D01*
X158910959Y-81729464D01*
X158907031Y-81669527D01*
X158902081Y-81651055D01*
X158875516Y-81597186D01*
X158863869Y-81582008D01*
X158830140Y-81552429D01*
X158822271Y-81546790D01*
X158263549Y-81224212D01*
X158250504Y-81221439D01*
X158245848Y-81223512D01*
X157834810Y-81935450D01*
X157832037Y-81948495D01*
X156810044Y-81948495D01*
X156413951Y-81719810D01*
X156400906Y-81717037D01*
X156396250Y-81719110D01*
X156069953Y-82284273D01*
X156065960Y-82293086D01*
X156051537Y-82335573D01*
X156049041Y-82354536D01*
X153647232Y-82354536D01*
X153644944Y-82339402D01*
X153650174Y-82298007D01*
X153656507Y-82247871D01*
X153656899Y-82219800D01*
X153655996Y-82210583D01*
X153644406Y-82092391D01*
X153637752Y-82024528D01*
X153581042Y-81836694D01*
X153518894Y-81719810D01*
X153491201Y-81667727D01*
X153491199Y-81667723D01*
X153488928Y-81663453D01*
X153476275Y-81647938D01*
X153367980Y-81515155D01*
X153367979Y-81515154D01*
X153364919Y-81511402D01*
X153245011Y-81412206D01*
X153217465Y-81389418D01*
X153217464Y-81389417D01*
X153213738Y-81386335D01*
X153101607Y-81325706D01*
X153045397Y-81295313D01*
X153045396Y-81295313D01*
X153041143Y-81293013D01*
X152853710Y-81234993D01*
X152848900Y-81234487D01*
X152848898Y-81234487D01*
X152663393Y-81214989D01*
X152663391Y-81214989D01*
X152658577Y-81214483D01*
X152610010Y-81218903D01*
X152467996Y-81231827D01*
X152467993Y-81231828D01*
X152463176Y-81232266D01*
X152458534Y-81233632D01*
X152458530Y-81233633D01*
X152279598Y-81286296D01*
X152279595Y-81286297D01*
X152274951Y-81287664D01*
X152101070Y-81378567D01*
X152097301Y-81381597D01*
X152097300Y-81381598D01*
X152087574Y-81389418D01*
X151948158Y-81501511D01*
X151921744Y-81532990D01*
X151825147Y-81648110D01*
X151825144Y-81648114D01*
X151822038Y-81651816D01*
X151727514Y-81823754D01*
X151726050Y-81828368D01*
X151726049Y-81828371D01*
X151672876Y-81995993D01*
X151668186Y-82010778D01*
X151667646Y-82015590D01*
X151667646Y-82015591D01*
X151653197Y-82144411D01*
X151646315Y-82205763D01*
X151650778Y-82258911D01*
X151662322Y-82396386D01*
X151662733Y-82401283D01*
X151664066Y-82405931D01*
X151664066Y-82405932D01*
X151715129Y-82584007D01*
X151716816Y-82589891D01*
X151719031Y-82594201D01*
X151771107Y-82695530D01*
X151780890Y-82755929D01*
X151753302Y-82810542D01*
X151698883Y-82838509D01*
X151633555Y-82826520D01*
X149919025Y-81836636D01*
X148137921Y-80808315D01*
X148130562Y-80803429D01*
X148128889Y-80802436D01*
X148124425Y-80799053D01*
X148119318Y-80796757D01*
X148117492Y-80795936D01*
X148108589Y-80791379D01*
X148106984Y-80790452D01*
X148106979Y-80790450D01*
X148102171Y-80787674D01*
X148096867Y-80786037D01*
X148095251Y-80785332D01*
X148086848Y-80782160D01*
X148013815Y-80749330D01*
X148011995Y-80748489D01*
X147994090Y-80739982D01*
X147991986Y-80739517D01*
X147990180Y-80738705D01*
X147985709Y-80737807D01*
X147985694Y-80737803D01*
X147970637Y-80734779D01*
X147968768Y-80734385D01*
X147880876Y-80714959D01*
X147878517Y-80714407D01*
X147859853Y-80709798D01*
X147857341Y-80709758D01*
X147855063Y-80709254D01*
X147835688Y-80709385D01*
X147833513Y-80709374D01*
X147747613Y-80707993D01*
X147744586Y-80707898D01*
X147736811Y-80707532D01*
X147731962Y-80707304D01*
X147731961Y-80707304D01*
X147726363Y-80707041D01*
X147723270Y-80707601D01*
X147720300Y-80707553D01*
X147702304Y-80711355D01*
X147699567Y-80711891D01*
X147673956Y-80716527D01*
X147618216Y-80726616D01*
X147614628Y-80727198D01*
X147602994Y-80728865D01*
X147602993Y-80728865D01*
X147597454Y-80729659D01*
X147593965Y-80731006D01*
X147590467Y-80731639D01*
X147574433Y-80738482D01*
X147571287Y-80739760D01*
X147495933Y-80768846D01*
X147492242Y-80770187D01*
X147481576Y-80773823D01*
X147481571Y-80773825D01*
X147476271Y-80775632D01*
X147472829Y-80777764D01*
X147469215Y-80779159D01*
X147455128Y-80788645D01*
X147452008Y-80790660D01*
X147383770Y-80832927D01*
X147380479Y-80834877D01*
X147365704Y-80843247D01*
X147362768Y-80845935D01*
X147359530Y-80847941D01*
X147355582Y-80851838D01*
X147355580Y-80851839D01*
X147347378Y-80859934D01*
X147344720Y-80862462D01*
X147284777Y-80917351D01*
X147282253Y-80919582D01*
X147268833Y-80931034D01*
X147266713Y-80933892D01*
X147264217Y-80936177D01*
X147255622Y-80948604D01*
X147254151Y-80950730D01*
X147252236Y-80953401D01*
X147202424Y-81020536D01*
X147200701Y-81022791D01*
X147192671Y-81032989D01*
X147192668Y-81032994D01*
X147189204Y-81037393D01*
X147187956Y-81040038D01*
X147186318Y-81042245D01*
X147184081Y-81047334D01*
X147184081Y-81047335D01*
X147178803Y-81059344D01*
X147177698Y-81061769D01*
X147160707Y-81097766D01*
X147141962Y-81137481D01*
X147140491Y-81140597D01*
X147139510Y-81142615D01*
X147130783Y-81160057D01*
X147130231Y-81162335D01*
X147129305Y-81164296D01*
X147128256Y-81169062D01*
X147125090Y-81183441D01*
X147124620Y-81185472D01*
X147122227Y-81195340D01*
X147104203Y-81269658D01*
X147102759Y-81274965D01*
X147102401Y-81276152D01*
X147098578Y-81288799D01*
X147098238Y-81293826D01*
X147098163Y-81294181D01*
X147098105Y-81294560D01*
X147098065Y-81294971D01*
X147096909Y-81299737D01*
X147096833Y-81305289D01*
X147096833Y-81305291D01*
X147096710Y-81314303D01*
X147096495Y-81319602D01*
X147093841Y-81358853D01*
X147093439Y-81363289D01*
X147093213Y-81365283D01*
X147091957Y-81370744D01*
X147091957Y-81383381D01*
X147091731Y-81390059D01*
X147090892Y-81402469D01*
X147091760Y-81407962D01*
X147091859Y-81410173D01*
X147091957Y-81414587D01*
X147091957Y-85456561D01*
X147073050Y-85514752D01*
X147023550Y-85550716D01*
X146962364Y-85550716D01*
X146912864Y-85514752D01*
X146905545Y-85503038D01*
X146892089Y-85477731D01*
X146892087Y-85477728D01*
X146889814Y-85473453D01*
X146876038Y-85456561D01*
X146768866Y-85325155D01*
X146768865Y-85325154D01*
X146765805Y-85321402D01*
X146655462Y-85230119D01*
X146618351Y-85199418D01*
X146618350Y-85199417D01*
X146614624Y-85196335D01*
X146459231Y-85112314D01*
X146446283Y-85105313D01*
X146446282Y-85105313D01*
X146442029Y-85103013D01*
X146254596Y-85044993D01*
X146249786Y-85044487D01*
X146249784Y-85044487D01*
X146064279Y-85024989D01*
X146064277Y-85024989D01*
X146059463Y-85024483D01*
X145995335Y-85030319D01*
X145868882Y-85041827D01*
X145868879Y-85041828D01*
X145864062Y-85042266D01*
X145859420Y-85043632D01*
X145859416Y-85043633D01*
X145680484Y-85096296D01*
X145680481Y-85096297D01*
X145675837Y-85097664D01*
X145501956Y-85188567D01*
X145498187Y-85191597D01*
X145498186Y-85191598D01*
X145488741Y-85199192D01*
X145349044Y-85311511D01*
X145328107Y-85336463D01*
X145226033Y-85458110D01*
X145226030Y-85458114D01*
X145222924Y-85461816D01*
X145128400Y-85633754D01*
X145126936Y-85638368D01*
X145126935Y-85638371D01*
X145100996Y-85720142D01*
X145069072Y-85820778D01*
X145047201Y-86015763D01*
X145063619Y-86211283D01*
X145064952Y-86215931D01*
X145064952Y-86215932D01*
X145076764Y-86257123D01*
X145117702Y-86399891D01*
X145119917Y-86404201D01*
X145205175Y-86570096D01*
X145205177Y-86570099D01*
X145207388Y-86574401D01*
X145329262Y-86728169D01*
X145332949Y-86731307D01*
X145332951Y-86731309D01*
X145474994Y-86852197D01*
X145474999Y-86852200D01*
X145478682Y-86855335D01*
X145482904Y-86857695D01*
X145482909Y-86857698D01*
X145524282Y-86880820D01*
X145649957Y-86951057D01*
X145727508Y-86976255D01*
X145831957Y-87010193D01*
X145831960Y-87010194D01*
X145836562Y-87011689D01*
X146031390Y-87034921D01*
X146036212Y-87034550D01*
X146036215Y-87034550D01*
X146222192Y-87020240D01*
X146222197Y-87020239D01*
X146227020Y-87019868D01*
X146416000Y-86967103D01*
X146420313Y-86964924D01*
X146420319Y-86964922D01*
X146586812Y-86880820D01*
X146586814Y-86880818D01*
X146591133Y-86878637D01*
X146617934Y-86857698D01*
X146741931Y-86760822D01*
X146741935Y-86760818D01*
X146745747Y-86757840D01*
X146771359Y-86728169D01*
X146870789Y-86612977D01*
X146870791Y-86612975D01*
X146873953Y-86609311D01*
X146906878Y-86551353D01*
X146952060Y-86510097D01*
X147012864Y-86503277D01*
X147066064Y-86533499D01*
X147091340Y-86589220D01*
X147091957Y-86600255D01*
X147091957Y-88922887D01*
X147073050Y-88981078D01*
X147023550Y-89017042D01*
X146979407Y-89019643D01*
X146979310Y-89020625D01*
X146964840Y-89019200D01*
X146319680Y-89019200D01*
X146306995Y-89023322D01*
X146304000Y-89027443D01*
X146304000Y-89849520D01*
X146308122Y-89862205D01*
X146312243Y-89865200D01*
X147134320Y-89865200D01*
X147147005Y-89861078D01*
X147153218Y-89852527D01*
X147177448Y-89804972D01*
X147231964Y-89777194D01*
X147292396Y-89786765D01*
X147326185Y-89814957D01*
X147329309Y-89819056D01*
X147332163Y-89823825D01*
X147336005Y-89827839D01*
X147337492Y-89829790D01*
X147342736Y-89836011D01*
X147385605Y-89893917D01*
X147389774Y-89899549D01*
X147394187Y-89906380D01*
X147395656Y-89908425D01*
X147398390Y-89913314D01*
X147402148Y-89917464D01*
X147402150Y-89917466D01*
X147403729Y-89919209D01*
X147409920Y-89926762D01*
X147409931Y-89926776D01*
X147414556Y-89933024D01*
X147418769Y-89936640D01*
X147420339Y-89938327D01*
X147426295Y-89944126D01*
X147443526Y-89963152D01*
X147479510Y-90002886D01*
X147481163Y-90004832D01*
X147483574Y-90008683D01*
X147494425Y-90019534D01*
X147497801Y-90023082D01*
X147504226Y-90030177D01*
X147504229Y-90030179D01*
X147507956Y-90034295D01*
X147511675Y-90036898D01*
X147513544Y-90038653D01*
X151042770Y-93567879D01*
X151050969Y-93577177D01*
X151069989Y-93601679D01*
X151083493Y-93625091D01*
X151091162Y-93643949D01*
X151098002Y-93671783D01*
X151099604Y-93688471D01*
X151098242Y-93716800D01*
X151095074Y-93733117D01*
X151085467Y-93760412D01*
X151072212Y-93785558D01*
X151059720Y-93803916D01*
X151053130Y-93811585D01*
X151048048Y-93817067D01*
X148925585Y-95939530D01*
X148916286Y-95947730D01*
X148891782Y-95966751D01*
X148868372Y-95980253D01*
X148849512Y-95987923D01*
X148821677Y-95994764D01*
X148804989Y-95996366D01*
X148776660Y-95995004D01*
X148760343Y-95991836D01*
X148733049Y-95982229D01*
X148707908Y-95968977D01*
X148689545Y-95956482D01*
X148681871Y-95949887D01*
X148676393Y-95944808D01*
X145371013Y-92639429D01*
X145368488Y-92636492D01*
X145368343Y-92636626D01*
X145364536Y-92632522D01*
X145361213Y-92628011D01*
X145352539Y-92620557D01*
X145347074Y-92615490D01*
X145339108Y-92607524D01*
X145334402Y-92604567D01*
X145330059Y-92601103D01*
X145330176Y-92600956D01*
X145327052Y-92598656D01*
X145281507Y-92559518D01*
X145276086Y-92554494D01*
X145267909Y-92546325D01*
X145263161Y-92543355D01*
X145261790Y-92542265D01*
X145260061Y-92541088D01*
X145255845Y-92537465D01*
X145245572Y-92532043D01*
X145239292Y-92528428D01*
X145178011Y-92490102D01*
X145173656Y-92487216D01*
X145166065Y-92481891D01*
X145166062Y-92481890D01*
X145161481Y-92478676D01*
X145156865Y-92476801D01*
X145156191Y-92476457D01*
X145152118Y-92473910D01*
X145146873Y-92472087D01*
X145146868Y-92472084D01*
X145137978Y-92468993D01*
X145133244Y-92467210D01*
X145034395Y-92427072D01*
X145031502Y-92425844D01*
X145020084Y-92420780D01*
X145020082Y-92420779D01*
X145014968Y-92418511D01*
X145011791Y-92417895D01*
X145008951Y-92416742D01*
X145003470Y-92415849D01*
X145003461Y-92415847D01*
X144990996Y-92413817D01*
X144988069Y-92413296D01*
X144882066Y-92392747D01*
X144878722Y-92392038D01*
X144866967Y-92389335D01*
X144866963Y-92389335D01*
X144861503Y-92388079D01*
X144857985Y-92388079D01*
X144854709Y-92387444D01*
X144837304Y-92388015D01*
X144836963Y-92388026D01*
X144833718Y-92388079D01*
X144726534Y-92388079D01*
X144723115Y-92388020D01*
X144711055Y-92387603D01*
X144711053Y-92387603D01*
X144705464Y-92387410D01*
X144702013Y-92388079D01*
X144698673Y-92388079D01*
X144681337Y-92392034D01*
X144678208Y-92392694D01*
X144604538Y-92406975D01*
X144572182Y-92413247D01*
X144569083Y-92413797D01*
X144566214Y-92414259D01*
X144551213Y-92416675D01*
X144548210Y-92417894D01*
X144545204Y-92418477D01*
X144531667Y-92424453D01*
X144528571Y-92425820D01*
X144525833Y-92426980D01*
X144426982Y-92467118D01*
X144422096Y-92468953D01*
X144408030Y-92473816D01*
X144403805Y-92476458D01*
X144403133Y-92476802D01*
X144398682Y-92478609D01*
X144394132Y-92481789D01*
X144394130Y-92481790D01*
X144386420Y-92487178D01*
X144382203Y-92489968D01*
X144320925Y-92528291D01*
X144314493Y-92531985D01*
X144309254Y-92534739D01*
X144309248Y-92534743D01*
X144304288Y-92537350D01*
X144300037Y-92541003D01*
X144298573Y-92541998D01*
X144296952Y-92543285D01*
X144292240Y-92546232D01*
X144284001Y-92554435D01*
X144278705Y-92559335D01*
X144233139Y-92598491D01*
X144230020Y-92600790D01*
X144230141Y-92600942D01*
X144225761Y-92604429D01*
X144221018Y-92607399D01*
X144212927Y-92615490D01*
X144207446Y-92620571D01*
X144203135Y-92624275D01*
X144203132Y-92624278D01*
X144198922Y-92627896D01*
X144195621Y-92632361D01*
X144191835Y-92636435D01*
X144191700Y-92636309D01*
X144189173Y-92639244D01*
X140888886Y-95939530D01*
X140879587Y-95947730D01*
X140855083Y-95966751D01*
X140831673Y-95980253D01*
X140812813Y-95987923D01*
X140784978Y-95994764D01*
X140768290Y-95996366D01*
X140739962Y-95995004D01*
X140723644Y-95991836D01*
X140696350Y-95982229D01*
X140671204Y-95968974D01*
X140652847Y-95956482D01*
X140645177Y-95949891D01*
X140639696Y-95944810D01*
X138517230Y-93822345D01*
X138509030Y-93813046D01*
X138495366Y-93795443D01*
X138490009Y-93788541D01*
X138476508Y-93765135D01*
X138468839Y-93746279D01*
X138461997Y-93718440D01*
X138460395Y-93701750D01*
X138461757Y-93673423D01*
X138464924Y-93657110D01*
X138474532Y-93629813D01*
X138487789Y-93604664D01*
X138500281Y-93586306D01*
X138506866Y-93578643D01*
X138511947Y-93573162D01*
X142046358Y-90038751D01*
X142048199Y-90037023D01*
X142051926Y-90034425D01*
X142062199Y-90023082D01*
X142065572Y-90019537D01*
X142076301Y-90008808D01*
X142078719Y-90004960D01*
X142080391Y-90002994D01*
X142085619Y-89997222D01*
X142133533Y-89944316D01*
X142139365Y-89938648D01*
X142141082Y-89936806D01*
X142145338Y-89933166D01*
X142150079Y-89926762D01*
X142156261Y-89919220D01*
X142157764Y-89917561D01*
X142157766Y-89917559D01*
X142161491Y-89913445D01*
X142164210Y-89908603D01*
X142165562Y-89906724D01*
X142170075Y-89899752D01*
X142217112Y-89836216D01*
X142222260Y-89830119D01*
X142223866Y-89828016D01*
X142227746Y-89823976D01*
X142231879Y-89817068D01*
X142237265Y-89808993D01*
X142237296Y-89808952D01*
X142241945Y-89802672D01*
X142244176Y-89797580D01*
X142245402Y-89795464D01*
X142249132Y-89788232D01*
X142263315Y-89764528D01*
X142309418Y-89724301D01*
X142370360Y-89718855D01*
X142422865Y-89750271D01*
X142446876Y-89806548D01*
X142442816Y-89844714D01*
X142428937Y-89889413D01*
X142423148Y-89938327D01*
X142411450Y-90037163D01*
X142405164Y-90090269D01*
X142418392Y-90292094D01*
X142419508Y-90296487D01*
X142419508Y-90296489D01*
X142455393Y-90437787D01*
X142468178Y-90488128D01*
X142552856Y-90671807D01*
X142669588Y-90836980D01*
X142814466Y-90978113D01*
X142982637Y-91090482D01*
X143168470Y-91170322D01*
X143365740Y-91214960D01*
X143567842Y-91222900D01*
X143593361Y-91219200D01*
X143763519Y-91194529D01*
X143763522Y-91194528D01*
X143768007Y-91193878D01*
X143881707Y-91155282D01*
X143955234Y-91130323D01*
X143955237Y-91130321D01*
X143959531Y-91128864D01*
X144128853Y-91034040D01*
X144950000Y-91034040D01*
X144950948Y-91043662D01*
X144959702Y-91087674D01*
X144967021Y-91105342D01*
X145000389Y-91155282D01*
X145013918Y-91168811D01*
X145063858Y-91202179D01*
X145081526Y-91209498D01*
X145125538Y-91218252D01*
X145135160Y-91219200D01*
X145780320Y-91219200D01*
X145793005Y-91215078D01*
X145796000Y-91210957D01*
X145796000Y-91203520D01*
X146304000Y-91203520D01*
X146308122Y-91216205D01*
X146312243Y-91219200D01*
X146964840Y-91219200D01*
X146974462Y-91218252D01*
X147018474Y-91209498D01*
X147036142Y-91202179D01*
X147086082Y-91168811D01*
X147099611Y-91155282D01*
X147132979Y-91105342D01*
X147140298Y-91087674D01*
X147149052Y-91043662D01*
X147150000Y-91034040D01*
X147150000Y-90388880D01*
X147145878Y-90376195D01*
X147141757Y-90373200D01*
X146319680Y-90373200D01*
X146306995Y-90377322D01*
X146304000Y-90381443D01*
X146304000Y-91203520D01*
X145796000Y-91203520D01*
X145796000Y-90388880D01*
X145791878Y-90376195D01*
X145787757Y-90373200D01*
X144965680Y-90373200D01*
X144952995Y-90377322D01*
X144950000Y-90381443D01*
X144950000Y-91034040D01*
X144128853Y-91034040D01*
X144136001Y-91030037D01*
X144291505Y-90900705D01*
X144420837Y-90745201D01*
X144519664Y-90568731D01*
X144533810Y-90527060D01*
X144568857Y-90423813D01*
X144584678Y-90377207D01*
X144592683Y-90322001D01*
X144613283Y-90179917D01*
X144613700Y-90177042D01*
X144615215Y-90119200D01*
X144608432Y-90045376D01*
X144598651Y-89938941D01*
X144596708Y-89917791D01*
X144577454Y-89849520D01*
X144950000Y-89849520D01*
X144954122Y-89862205D01*
X144958243Y-89865200D01*
X145780320Y-89865200D01*
X145793005Y-89861078D01*
X145796000Y-89856957D01*
X145796000Y-89034880D01*
X145791878Y-89022195D01*
X145787757Y-89019200D01*
X145135160Y-89019200D01*
X145125538Y-89020148D01*
X145081526Y-89028902D01*
X145063858Y-89036221D01*
X145013918Y-89069589D01*
X145000389Y-89083118D01*
X144967021Y-89133058D01*
X144959702Y-89150726D01*
X144950948Y-89194738D01*
X144950000Y-89204360D01*
X144950000Y-89849520D01*
X144577454Y-89849520D01*
X144541807Y-89723126D01*
X144537349Y-89714085D01*
X144479418Y-89596614D01*
X144452351Y-89541727D01*
X144331335Y-89379667D01*
X144327295Y-89375932D01*
X144312203Y-89361982D01*
X144182812Y-89242374D01*
X144160125Y-89228059D01*
X144015594Y-89136867D01*
X144011757Y-89134446D01*
X143979681Y-89121649D01*
X143897145Y-89088720D01*
X143850103Y-89049596D01*
X143834830Y-88996827D01*
X143833665Y-87046984D01*
X143852538Y-86988782D01*
X143888028Y-86958559D01*
X144041926Y-86880820D01*
X144041928Y-86880818D01*
X144046247Y-86878637D01*
X144073048Y-86857698D01*
X144197045Y-86760822D01*
X144197049Y-86760818D01*
X144200861Y-86757840D01*
X144226473Y-86728169D01*
X144325903Y-86612977D01*
X144325905Y-86612975D01*
X144329067Y-86609311D01*
X144334212Y-86600255D01*
X144423594Y-86442915D01*
X144423595Y-86442912D01*
X144425983Y-86438709D01*
X144437463Y-86404201D01*
X144486389Y-86257123D01*
X144486389Y-86257121D01*
X144487916Y-86252532D01*
X144512507Y-86057871D01*
X144512899Y-86029800D01*
X144511996Y-86020583D01*
X144494224Y-85839346D01*
X144493752Y-85834528D01*
X144437042Y-85646694D01*
X144384456Y-85547794D01*
X144347201Y-85477727D01*
X144347199Y-85477723D01*
X144344928Y-85473453D01*
X144331152Y-85456561D01*
X144223980Y-85325155D01*
X144223979Y-85325154D01*
X144220919Y-85321402D01*
X144110576Y-85230119D01*
X144073465Y-85199418D01*
X144073464Y-85199417D01*
X144069738Y-85196335D01*
X143914345Y-85112314D01*
X143901397Y-85105313D01*
X143901396Y-85105313D01*
X143897143Y-85103013D01*
X143709710Y-85044993D01*
X143704900Y-85044487D01*
X143704898Y-85044487D01*
X143519393Y-85024989D01*
X143519391Y-85024989D01*
X143514577Y-85024483D01*
X143450449Y-85030319D01*
X143323996Y-85041827D01*
X143323993Y-85041828D01*
X143319176Y-85042266D01*
X143314534Y-85043632D01*
X143314530Y-85043633D01*
X143135598Y-85096296D01*
X143135595Y-85096297D01*
X143130951Y-85097664D01*
X142957070Y-85188567D01*
X142953301Y-85191597D01*
X142953300Y-85191598D01*
X142943855Y-85199192D01*
X142804158Y-85311511D01*
X142783221Y-85336463D01*
X142681147Y-85458110D01*
X142681144Y-85458114D01*
X142678038Y-85461816D01*
X142671152Y-85474341D01*
X142653797Y-85505910D01*
X142609195Y-85547794D01*
X142548492Y-85555462D01*
X142494875Y-85525986D01*
X142468824Y-85470624D01*
X142468043Y-85458216D01*
X142468043Y-82755361D01*
X143075316Y-82755361D01*
X143075492Y-82759026D01*
X143075492Y-82759028D01*
X143080702Y-82867489D01*
X143087443Y-83007820D01*
X143136752Y-83255713D01*
X143137992Y-83259168D01*
X143137993Y-83259170D01*
X143213341Y-83469031D01*
X143222160Y-83493595D01*
X143341792Y-83716240D01*
X143493018Y-83918756D01*
X143672517Y-84096696D01*
X143675476Y-84098866D01*
X143675480Y-84098869D01*
X143782332Y-84177215D01*
X143876346Y-84246149D01*
X144100026Y-84363833D01*
X144103497Y-84365045D01*
X144103499Y-84365046D01*
X144172932Y-84389293D01*
X144338644Y-84447162D01*
X144586958Y-84494306D01*
X144724408Y-84499706D01*
X144835843Y-84504085D01*
X144835846Y-84504085D01*
X144839513Y-84504229D01*
X145090760Y-84476713D01*
X145212970Y-84444538D01*
X145331635Y-84413297D01*
X145331640Y-84413295D01*
X145335181Y-84412363D01*
X145567405Y-84312591D01*
X145593185Y-84296638D01*
X145779205Y-84181526D01*
X145779210Y-84181522D01*
X145782331Y-84179591D01*
X145975238Y-84016283D01*
X146062617Y-83916647D01*
X146139462Y-83829023D01*
X146139466Y-83829018D01*
X146141888Y-83826256D01*
X146278619Y-83613684D01*
X146331257Y-83496833D01*
X146380918Y-83386588D01*
X146382428Y-83383236D01*
X146387606Y-83364879D01*
X146431218Y-83210239D01*
X146451034Y-83139976D01*
X146482931Y-82889247D01*
X146484995Y-82810422D01*
X146485203Y-82802492D01*
X146485203Y-82802487D01*
X146485268Y-82800000D01*
X146485084Y-82797527D01*
X146485084Y-82797517D01*
X146466809Y-82551599D01*
X146466808Y-82551593D01*
X146466537Y-82547945D01*
X146410756Y-82301428D01*
X146392904Y-82255521D01*
X146320480Y-82069282D01*
X146320478Y-82069277D01*
X146319150Y-82065863D01*
X146193731Y-81846426D01*
X146037255Y-81647938D01*
X146034582Y-81645424D01*
X146034577Y-81645418D01*
X145896103Y-81515155D01*
X145853160Y-81474758D01*
X145645489Y-81330691D01*
X145641448Y-81328698D01*
X145422107Y-81220531D01*
X145422103Y-81220529D01*
X145418805Y-81218903D01*
X145415303Y-81217782D01*
X145415298Y-81217780D01*
X145259133Y-81167792D01*
X145178087Y-81141849D01*
X145174472Y-81141260D01*
X145174471Y-81141260D01*
X144932241Y-81101810D01*
X144932240Y-81101810D01*
X144928624Y-81101221D01*
X144924961Y-81101173D01*
X144924960Y-81101173D01*
X144909089Y-81100965D01*
X144862606Y-81100357D01*
X144804668Y-81080689D01*
X144773507Y-81036597D01*
X144738354Y-81081268D01*
X144683230Y-81097621D01*
X144683237Y-81097736D01*
X144682741Y-81097766D01*
X144681980Y-81097992D01*
X144679570Y-81097960D01*
X144679555Y-81097961D01*
X144675896Y-81097913D01*
X144672268Y-81098407D01*
X144672264Y-81098407D01*
X144529436Y-81117845D01*
X144425455Y-81131996D01*
X144182803Y-81202723D01*
X143953270Y-81308539D01*
X143741899Y-81447120D01*
X143739166Y-81449559D01*
X143739165Y-81449560D01*
X143556070Y-81612978D01*
X143553333Y-81615421D01*
X143550986Y-81618243D01*
X143550985Y-81618244D01*
X143523064Y-81651816D01*
X143391715Y-81809746D01*
X143260595Y-82025825D01*
X143162854Y-82258911D01*
X143161949Y-82262473D01*
X143161949Y-82262474D01*
X143103129Y-82494080D01*
X143100639Y-82503883D01*
X143075316Y-82755361D01*
X142468043Y-82755361D01*
X142468043Y-81412206D01*
X142468594Y-81403388D01*
X142468617Y-81401441D01*
X142469315Y-81395883D01*
X142468750Y-81390315D01*
X142468750Y-81390310D01*
X142468549Y-81388333D01*
X142468043Y-81378339D01*
X142468043Y-81370921D01*
X142466807Y-81365502D01*
X142466611Y-81363760D01*
X142465156Y-81354891D01*
X142461037Y-81314303D01*
X142457073Y-81275238D01*
X142456889Y-81273214D01*
X142455694Y-81258323D01*
X142455305Y-81253474D01*
X142454656Y-81251420D01*
X142454456Y-81249450D01*
X142448068Y-81230517D01*
X142447523Y-81228851D01*
X142420371Y-81142929D01*
X142419679Y-81140644D01*
X142417475Y-81133022D01*
X142414326Y-81122130D01*
X142413103Y-81119931D01*
X142412401Y-81117709D01*
X142406207Y-81107145D01*
X142402661Y-81101097D01*
X142401542Y-81099138D01*
X142359757Y-81023999D01*
X142358313Y-81021306D01*
X142358235Y-81021154D01*
X142349969Y-81005146D01*
X142347938Y-81002748D01*
X142346494Y-81000151D01*
X142334229Y-80986494D01*
X142332355Y-80984346D01*
X142278881Y-80921201D01*
X142276624Y-80918433D01*
X142269384Y-80909218D01*
X142265926Y-80904816D01*
X142263022Y-80902473D01*
X142260720Y-80899755D01*
X142256280Y-80896422D01*
X142246764Y-80889279D01*
X142244037Y-80887156D01*
X142181227Y-80836487D01*
X142178239Y-80833978D01*
X142165521Y-80822854D01*
X142161951Y-80820938D01*
X142158938Y-80818507D01*
X142153937Y-80816063D01*
X142153935Y-80816062D01*
X142143725Y-80811073D01*
X142140368Y-80809353D01*
X142069679Y-80771409D01*
X142066300Y-80769509D01*
X142056509Y-80763749D01*
X142056507Y-80763748D01*
X142051683Y-80760910D01*
X142047885Y-80759711D01*
X142044528Y-80757909D01*
X142039170Y-80756436D01*
X142039161Y-80756432D01*
X142028068Y-80753382D01*
X142024530Y-80752338D01*
X141947058Y-80727881D01*
X141943827Y-80726798D01*
X141932500Y-80722781D01*
X141932496Y-80722780D01*
X141927222Y-80720910D01*
X141923685Y-80720502D01*
X141920459Y-80719484D01*
X141914930Y-80719032D01*
X141914928Y-80719032D01*
X141902842Y-80718045D01*
X141899570Y-80717723D01*
X141816483Y-80708147D01*
X141813698Y-80707785D01*
X141800840Y-80705928D01*
X141800835Y-80705928D01*
X141795296Y-80705128D01*
X141792381Y-80705369D01*
X141789653Y-80705055D01*
X141784133Y-80705662D01*
X141784131Y-80705662D01*
X141771072Y-80707098D01*
X141768419Y-80707353D01*
X141681607Y-80714540D01*
X141679342Y-80714702D01*
X141665028Y-80715557D01*
X141659855Y-80715866D01*
X141657604Y-80716527D01*
X141655445Y-80716706D01*
X141650799Y-80718178D01*
X141650792Y-80718180D01*
X141636766Y-80722625D01*
X141634760Y-80723237D01*
X141551669Y-80747643D01*
X141546342Y-80749048D01*
X141537708Y-80751070D01*
X141537707Y-80751070D01*
X141532260Y-80752346D01*
X141527729Y-80754568D01*
X141527377Y-80754683D01*
X141527046Y-80754811D01*
X141526652Y-80754990D01*
X141521952Y-80756371D01*
X141511239Y-80762363D01*
X141509263Y-80763468D01*
X141504539Y-80765945D01*
X141469249Y-80783257D01*
X141465164Y-80785147D01*
X141463333Y-80785944D01*
X141457983Y-80787585D01*
X141447033Y-80793907D01*
X141441171Y-80797032D01*
X141429975Y-80802525D01*
X141425655Y-80806022D01*
X141423794Y-80807210D01*
X141420014Y-80809507D01*
X139249453Y-82062681D01*
X137972380Y-82800000D01*
X137926617Y-82826421D01*
X137866769Y-82839142D01*
X137810873Y-82814255D01*
X137780280Y-82761267D01*
X137786676Y-82700417D01*
X137791031Y-82691795D01*
X137826869Y-82628709D01*
X137828455Y-82623943D01*
X137887275Y-82447123D01*
X137887275Y-82447121D01*
X137888802Y-82442532D01*
X137890543Y-82428756D01*
X137912133Y-82257846D01*
X137913393Y-82247871D01*
X137913785Y-82219800D01*
X137912882Y-82210583D01*
X137901292Y-82092391D01*
X137894638Y-82024528D01*
X137837928Y-81836694D01*
X137775780Y-81719810D01*
X137748087Y-81667727D01*
X137748085Y-81667723D01*
X137745814Y-81663453D01*
X137733161Y-81647938D01*
X137624866Y-81515155D01*
X137624865Y-81515154D01*
X137621805Y-81511402D01*
X137501897Y-81412206D01*
X137474351Y-81389418D01*
X137474350Y-81389417D01*
X137470624Y-81386335D01*
X137358493Y-81325706D01*
X137302283Y-81295313D01*
X137302282Y-81295313D01*
X137298029Y-81293013D01*
X137110596Y-81234993D01*
X137105786Y-81234487D01*
X137105784Y-81234487D01*
X136920279Y-81214989D01*
X136920277Y-81214989D01*
X136915463Y-81214483D01*
X136866896Y-81218903D01*
X136724882Y-81231827D01*
X136724879Y-81231828D01*
X136720062Y-81232266D01*
X136715420Y-81233632D01*
X136715416Y-81233633D01*
X136536484Y-81286296D01*
X136536481Y-81286297D01*
X136531837Y-81287664D01*
X136357956Y-81378567D01*
X136354187Y-81381597D01*
X136354186Y-81381598D01*
X136344460Y-81389418D01*
X136205044Y-81501511D01*
X136178630Y-81532990D01*
X136082033Y-81648110D01*
X136082030Y-81648114D01*
X136078924Y-81651816D01*
X135984400Y-81823754D01*
X135982936Y-81828368D01*
X135982935Y-81828371D01*
X135929762Y-81995993D01*
X135925072Y-82010778D01*
X135924532Y-82015590D01*
X135924532Y-82015591D01*
X135910083Y-82144411D01*
X135903201Y-82205763D01*
X135907664Y-82258911D01*
X135919208Y-82396386D01*
X135919619Y-82401283D01*
X135920952Y-82405931D01*
X135920952Y-82405932D01*
X135972015Y-82584007D01*
X135973702Y-82589891D01*
X135975917Y-82594201D01*
X136061175Y-82760096D01*
X136061178Y-82760100D01*
X136063388Y-82764401D01*
X136066395Y-82768195D01*
X136077561Y-82782283D01*
X136185262Y-82918169D01*
X136188949Y-82921307D01*
X136188951Y-82921309D01*
X136330994Y-83042197D01*
X136330999Y-83042200D01*
X136334682Y-83045335D01*
X136338904Y-83047695D01*
X136338909Y-83047698D01*
X136433569Y-83100601D01*
X136505957Y-83141057D01*
X136572558Y-83162697D01*
X136687957Y-83200193D01*
X136687960Y-83200194D01*
X136692562Y-83201689D01*
X136794833Y-83213884D01*
X136881139Y-83224176D01*
X136936682Y-83249841D01*
X136966532Y-83303251D01*
X136959287Y-83364006D01*
X136918917Y-83408217D01*
X134967168Y-84535060D01*
X134900865Y-84573340D01*
X134841017Y-84586061D01*
X134785121Y-84561174D01*
X134766024Y-84535060D01*
X134764977Y-84535665D01*
X134439968Y-83972733D01*
X134430055Y-83963807D01*
X134424989Y-83963275D01*
X133713049Y-84374314D01*
X133704125Y-84384226D01*
X133703592Y-84389293D01*
X134114629Y-85101231D01*
X134124543Y-85110157D01*
X134145065Y-85112314D01*
X134183594Y-85110294D01*
X134234909Y-85143618D01*
X134256836Y-85200739D01*
X134248770Y-85245376D01*
X134220724Y-85309916D01*
X134217017Y-85317149D01*
X134215984Y-85319436D01*
X134213116Y-85324251D01*
X134210682Y-85331817D01*
X134207236Y-85340955D01*
X134206344Y-85343007D01*
X134206342Y-85343013D01*
X134204130Y-85348104D01*
X134203104Y-85353567D01*
X134202427Y-85355774D01*
X134200384Y-85363826D01*
X134176105Y-85439293D01*
X134175251Y-85441685D01*
X134173118Y-85445705D01*
X134169142Y-85460546D01*
X134167774Y-85465188D01*
X134163128Y-85479629D01*
X134162734Y-85484149D01*
X134162151Y-85486634D01*
X132870363Y-90307652D01*
X132866412Y-90319399D01*
X132857160Y-90342095D01*
X132854699Y-90348131D01*
X132841180Y-90371524D01*
X132828680Y-90387600D01*
X132807993Y-90407443D01*
X132794343Y-90417173D01*
X132769131Y-90430157D01*
X132753413Y-90435573D01*
X132724972Y-90440901D01*
X132707808Y-90441562D01*
X132696565Y-90441995D01*
X132674419Y-90440355D01*
X132664476Y-90438481D01*
X132657189Y-90436821D01*
X129757867Y-89659950D01*
X129746122Y-89656000D01*
X129717375Y-89644280D01*
X129693982Y-89630760D01*
X129677911Y-89618263D01*
X129658069Y-89597577D01*
X129657145Y-89596280D01*
X129648340Y-89583929D01*
X129635355Y-89558715D01*
X129629939Y-89542997D01*
X129624611Y-89514555D01*
X129623517Y-89486150D01*
X129625157Y-89464003D01*
X129626331Y-89457777D01*
X129627029Y-89454069D01*
X129628689Y-89446785D01*
X130274946Y-87034921D01*
X130802439Y-85066292D01*
X132530994Y-85066292D01*
X132857290Y-85631454D01*
X132862929Y-85639323D01*
X132892508Y-85673052D01*
X132907686Y-85684699D01*
X132961555Y-85711264D01*
X132980027Y-85716214D01*
X133039964Y-85720142D01*
X133058927Y-85717646D01*
X133101414Y-85703223D01*
X133110227Y-85699230D01*
X133668950Y-85376651D01*
X133677876Y-85366738D01*
X133678408Y-85361672D01*
X133267369Y-84649732D01*
X133257457Y-84640808D01*
X133252390Y-84640275D01*
X132540452Y-85051312D01*
X132531526Y-85061226D01*
X132530994Y-85066292D01*
X130802439Y-85066292D01*
X130838546Y-84931540D01*
X130839830Y-84927888D01*
X130839638Y-84927829D01*
X130841288Y-84922481D01*
X130843533Y-84917348D01*
X130845652Y-84906105D01*
X130847303Y-84898856D01*
X130850222Y-84887963D01*
X130850431Y-84882402D01*
X130851258Y-84876913D01*
X130851444Y-84876941D01*
X130851873Y-84873093D01*
X130862996Y-84814075D01*
X130864644Y-84806834D01*
X130866174Y-84801115D01*
X130866174Y-84801113D01*
X130867621Y-84795704D01*
X130867819Y-84790101D01*
X130868081Y-84788346D01*
X130868234Y-84786282D01*
X130869263Y-84780824D01*
X130869052Y-84775281D01*
X130869053Y-84775271D01*
X130868822Y-84769211D01*
X130868812Y-84761955D01*
X130869455Y-84743761D01*
X130871360Y-84689764D01*
X130871682Y-84684543D01*
X130871690Y-84684460D01*
X130872993Y-84669712D01*
X130872306Y-84664764D01*
X130872269Y-84664033D01*
X130872439Y-84659219D01*
X130871395Y-84653763D01*
X130871395Y-84653757D01*
X130869626Y-84644505D01*
X130868804Y-84639520D01*
X130861385Y-84586061D01*
X130854134Y-84533810D01*
X130853765Y-84530802D01*
X130851842Y-84512744D01*
X130850786Y-84509682D01*
X130850365Y-84506649D01*
X130848398Y-84501457D01*
X130848396Y-84501450D01*
X130843916Y-84489627D01*
X130842904Y-84486829D01*
X130807697Y-84384747D01*
X130806639Y-84381500D01*
X130803104Y-84369974D01*
X130801463Y-84364623D01*
X130799706Y-84361580D01*
X130798617Y-84358422D01*
X130789211Y-84343298D01*
X130787576Y-84340569D01*
X130733985Y-84247748D01*
X130732326Y-84244757D01*
X130726657Y-84234103D01*
X130726653Y-84234097D01*
X130724024Y-84229157D01*
X130721720Y-84226503D01*
X130720048Y-84223608D01*
X130707924Y-84210538D01*
X130705800Y-84208171D01*
X130680982Y-84179591D01*
X130635000Y-84126639D01*
X130632981Y-84124239D01*
X130625090Y-84114546D01*
X130621553Y-84110201D01*
X130618997Y-84108211D01*
X130616991Y-84105901D01*
X130612300Y-84102470D01*
X130602301Y-84095158D01*
X130599973Y-84093402D01*
X130515742Y-84027828D01*
X130511729Y-84024530D01*
X130500476Y-84014773D01*
X130496079Y-84012437D01*
X130495439Y-84012022D01*
X130491651Y-84009073D01*
X130478092Y-84002736D01*
X130473565Y-84000478D01*
X130428704Y-83976647D01*
X131921541Y-83976647D01*
X131924037Y-83995610D01*
X131938460Y-84038097D01*
X131942453Y-84046910D01*
X132265032Y-84605633D01*
X132274945Y-84614559D01*
X132280011Y-84615091D01*
X132991951Y-84204052D01*
X133000875Y-84194140D01*
X133001408Y-84189073D01*
X132590371Y-83477135D01*
X132580457Y-83468209D01*
X132575391Y-83467677D01*
X132010229Y-83793973D01*
X132002360Y-83799612D01*
X131968631Y-83829191D01*
X131956984Y-83844369D01*
X131930419Y-83898238D01*
X131925469Y-83916710D01*
X131921541Y-83976647D01*
X130428704Y-83976647D01*
X130409752Y-83966579D01*
X130403332Y-83962853D01*
X130398323Y-83959690D01*
X130398321Y-83959689D01*
X130393585Y-83956698D01*
X130388297Y-83954843D01*
X130386700Y-83954071D01*
X130384770Y-83953309D01*
X130379866Y-83950704D01*
X130374511Y-83949257D01*
X130374505Y-83949254D01*
X130368652Y-83947672D01*
X130361725Y-83945524D01*
X130305073Y-83925655D01*
X130301517Y-83924105D01*
X130301447Y-83924283D01*
X130296230Y-83922230D01*
X130291286Y-83919607D01*
X130280227Y-83916644D01*
X130273105Y-83914443D01*
X130267735Y-83912560D01*
X130267734Y-83912560D01*
X130262488Y-83910720D01*
X130256965Y-83910093D01*
X130251554Y-83908853D01*
X130251595Y-83908673D01*
X130247791Y-83907952D01*
X127667981Y-83216694D01*
X133026592Y-83216694D01*
X133437631Y-83928634D01*
X133447543Y-83937558D01*
X133452610Y-83938091D01*
X134164548Y-83527054D01*
X134173474Y-83517140D01*
X134174006Y-83512074D01*
X133847710Y-82946912D01*
X133842071Y-82939043D01*
X133812492Y-82905314D01*
X133797314Y-82893667D01*
X133743445Y-82867102D01*
X133724973Y-82862152D01*
X133665036Y-82858224D01*
X133646073Y-82860720D01*
X133603586Y-82875143D01*
X133594773Y-82879136D01*
X133036050Y-83201715D01*
X133027124Y-83211628D01*
X133026592Y-83216694D01*
X127667981Y-83216694D01*
X125739508Y-82699961D01*
X125727759Y-82696009D01*
X125719095Y-82692477D01*
X125699030Y-82684297D01*
X125675633Y-82670775D01*
X125659560Y-82658276D01*
X125639720Y-82637593D01*
X125636382Y-82632910D01*
X125629988Y-82623941D01*
X125617002Y-82598725D01*
X125616472Y-82597185D01*
X125611589Y-82583014D01*
X125606262Y-82554571D01*
X125605169Y-82526164D01*
X125606809Y-82504024D01*
X125608683Y-82494080D01*
X125610343Y-82486791D01*
X126387216Y-79587459D01*
X126391168Y-79575710D01*
X126402880Y-79546980D01*
X126416402Y-79523581D01*
X126428898Y-79507511D01*
X126449583Y-79487669D01*
X126451025Y-79486641D01*
X126463236Y-79477936D01*
X126488448Y-79464952D01*
X126504168Y-79459536D01*
X126532603Y-79454210D01*
X126554799Y-79453355D01*
X126561013Y-79453116D01*
X126583158Y-79454756D01*
X126593092Y-79456628D01*
X126600378Y-79458288D01*
X130807926Y-80585698D01*
X131387192Y-80740912D01*
X131428468Y-80751972D01*
X131430885Y-80752702D01*
X131435000Y-80754631D01*
X131449986Y-80757861D01*
X131454717Y-80759005D01*
X131469373Y-80762932D01*
X131473912Y-80763103D01*
X131476444Y-80763566D01*
X131553838Y-80780250D01*
X131561676Y-80782470D01*
X131564120Y-80783034D01*
X131569399Y-80784899D01*
X131574961Y-80785534D01*
X131574965Y-80785535D01*
X131577319Y-80785804D01*
X131586939Y-80787386D01*
X131589114Y-80787855D01*
X131589122Y-80787856D01*
X131594555Y-80789027D01*
X131600115Y-80788961D01*
X131602428Y-80789193D01*
X131610694Y-80789614D01*
X131689250Y-80798582D01*
X131697088Y-80799990D01*
X131699721Y-80800330D01*
X131705162Y-80801671D01*
X131713207Y-80801796D01*
X131722886Y-80802422D01*
X131730714Y-80803316D01*
X131736234Y-80802703D01*
X131738683Y-80802707D01*
X131746808Y-80802320D01*
X131812011Y-80803336D01*
X131825166Y-80803541D01*
X131832999Y-80804167D01*
X131835750Y-80804252D01*
X131841292Y-80805055D01*
X131849377Y-80804390D01*
X131859027Y-80804068D01*
X131866961Y-80804192D01*
X131872399Y-80803040D01*
X131874931Y-80802795D01*
X131882872Y-80801633D01*
X131901754Y-80800079D01*
X131937903Y-80797104D01*
X131969341Y-80804533D01*
X131998280Y-80792135D01*
X132002303Y-80791804D01*
X132007595Y-80790130D01*
X132010117Y-80789634D01*
X132017876Y-80787710D01*
X132094649Y-80773765D01*
X132102451Y-80772860D01*
X132105165Y-80772410D01*
X132110756Y-80772122D01*
X132116498Y-80770487D01*
X132118546Y-80769904D01*
X132127957Y-80767715D01*
X132130301Y-80767289D01*
X132130303Y-80767288D01*
X132135767Y-80766296D01*
X132140870Y-80764115D01*
X132143303Y-80763384D01*
X132150874Y-80760700D01*
X132226250Y-80739238D01*
X132234037Y-80737550D01*
X132236597Y-80736862D01*
X132242138Y-80736028D01*
X132247342Y-80733977D01*
X132247348Y-80733975D01*
X132249633Y-80733074D01*
X132258820Y-80729964D01*
X132261044Y-80729331D01*
X132261046Y-80729330D01*
X132266389Y-80727809D01*
X132271262Y-80725136D01*
X132273525Y-80724207D01*
X132280896Y-80720750D01*
X132354442Y-80691761D01*
X132362185Y-80689266D01*
X132364538Y-80688377D01*
X132369967Y-80687002D01*
X132374950Y-80684445D01*
X132374952Y-80684444D01*
X132377052Y-80683366D01*
X132385947Y-80679342D01*
X132393189Y-80676488D01*
X132397779Y-80673350D01*
X132399827Y-80672264D01*
X132406948Y-80668025D01*
X132477485Y-80631828D01*
X132479788Y-80630737D01*
X132484134Y-80629404D01*
X132488986Y-80626603D01*
X132488988Y-80626602D01*
X132497414Y-80621738D01*
X132501708Y-80619398D01*
X132510241Y-80615019D01*
X132510243Y-80615018D01*
X132515184Y-80612482D01*
X132518662Y-80609563D01*
X132520843Y-80608210D01*
X132557033Y-80587316D01*
X133217261Y-80206133D01*
X134622967Y-79394549D01*
X134682815Y-79381828D01*
X134738711Y-79406715D01*
X134769304Y-79459703D01*
X134762908Y-79520553D01*
X134759223Y-79527975D01*
X134711956Y-79613954D01*
X134710492Y-79618568D01*
X134710491Y-79618571D01*
X134681040Y-79711412D01*
X134652628Y-79800978D01*
X134630757Y-79995963D01*
X134634060Y-80035296D01*
X134643555Y-80148374D01*
X134629583Y-80207943D01*
X134594904Y-80242103D01*
X132898211Y-81234993D01*
X132888831Y-81240482D01*
X132829058Y-81253554D01*
X132771626Y-81227733D01*
X132767060Y-81223512D01*
X132755312Y-81212652D01*
X132737947Y-81201695D01*
X132588094Y-81107145D01*
X132584257Y-81104724D01*
X132396398Y-81029776D01*
X132198026Y-80990317D01*
X132016839Y-80987946D01*
X131992078Y-80979540D01*
X131962788Y-80993340D01*
X131796449Y-81021922D01*
X131606693Y-81091927D01*
X131602790Y-81094249D01*
X131596631Y-81097913D01*
X131432871Y-81195340D01*
X131429456Y-81198335D01*
X131429453Y-81198337D01*
X131342912Y-81274232D01*
X131280805Y-81328698D01*
X131277997Y-81332260D01*
X131163680Y-81477272D01*
X131155589Y-81487535D01*
X131061414Y-81666531D01*
X131060069Y-81670862D01*
X131060068Y-81670865D01*
X131005556Y-81846426D01*
X131001437Y-81859691D01*
X130977664Y-82060547D01*
X130978237Y-82069282D01*
X130989942Y-82247871D01*
X130990892Y-82262372D01*
X130992008Y-82266765D01*
X130992008Y-82266767D01*
X131037812Y-82447123D01*
X131040678Y-82458406D01*
X131125356Y-82642085D01*
X131242088Y-82807258D01*
X131386966Y-82948391D01*
X131555137Y-83060760D01*
X131740970Y-83140600D01*
X131938240Y-83185238D01*
X132140342Y-83193178D01*
X132193877Y-83185416D01*
X132336019Y-83164807D01*
X132336022Y-83164806D01*
X132340507Y-83164156D01*
X132467363Y-83121094D01*
X132527734Y-83100601D01*
X132527737Y-83100599D01*
X132532031Y-83099142D01*
X132682327Y-83014973D01*
X132704539Y-83002534D01*
X132704541Y-83002533D01*
X132708501Y-83000315D01*
X132864005Y-82870983D01*
X132993337Y-82715479D01*
X133000409Y-82702852D01*
X133030657Y-82648839D01*
X133092164Y-82539009D01*
X133096525Y-82526164D01*
X133133938Y-82415947D01*
X133157178Y-82347485D01*
X133165066Y-82293086D01*
X133185783Y-82150195D01*
X133186200Y-82147320D01*
X133187715Y-82089478D01*
X133187449Y-82086587D01*
X133187449Y-82086577D01*
X133169966Y-81896312D01*
X133183470Y-81836636D01*
X133218549Y-81801809D01*
X134082526Y-81296217D01*
X134923164Y-80804283D01*
X134982936Y-80791211D01*
X135037328Y-80814335D01*
X135062238Y-80835535D01*
X135066460Y-80837895D01*
X135066465Y-80837898D01*
X135154603Y-80887156D01*
X135233513Y-80931257D01*
X135297618Y-80952086D01*
X135415513Y-80990393D01*
X135415516Y-80990394D01*
X135420118Y-80991889D01*
X135614946Y-81015121D01*
X135619768Y-81014750D01*
X135619771Y-81014750D01*
X135805748Y-81000440D01*
X135805753Y-81000439D01*
X135810576Y-81000068D01*
X135999556Y-80947303D01*
X136003869Y-80945124D01*
X136003875Y-80945122D01*
X136170368Y-80861020D01*
X136170370Y-80861018D01*
X136174689Y-80858837D01*
X136186013Y-80849990D01*
X136325487Y-80741022D01*
X136325491Y-80741018D01*
X136329303Y-80738040D01*
X136332947Y-80733819D01*
X136454345Y-80593177D01*
X136454347Y-80593175D01*
X136457509Y-80589511D01*
X136459902Y-80585299D01*
X136552036Y-80423115D01*
X136552037Y-80423112D01*
X136554425Y-80418909D01*
X136556310Y-80413244D01*
X136614831Y-80237323D01*
X136614831Y-80237321D01*
X136616358Y-80232732D01*
X136640949Y-80038071D01*
X136641341Y-80010000D01*
X136640856Y-80005046D01*
X136622666Y-79819546D01*
X136622194Y-79814728D01*
X136587826Y-79700895D01*
X141644144Y-79700895D01*
X141644879Y-79705539D01*
X141645110Y-79705850D01*
X141679241Y-79738581D01*
X141682599Y-79741521D01*
X142012712Y-80005046D01*
X142016326Y-80007672D01*
X142368960Y-80240191D01*
X142372801Y-80242481D01*
X142745051Y-80442080D01*
X142749096Y-80444018D01*
X143137887Y-80609050D01*
X143142105Y-80610619D01*
X143544257Y-80739736D01*
X143548587Y-80740912D01*
X143960792Y-80833050D01*
X143965214Y-80833830D01*
X144384069Y-80888230D01*
X144388532Y-80888605D01*
X144687081Y-80900074D01*
X144744503Y-80921201D01*
X144773694Y-80964805D01*
X144806764Y-80920518D01*
X144858721Y-80902501D01*
X145236880Y-80882683D01*
X145241353Y-80882245D01*
X145659403Y-80822002D01*
X145663824Y-80821159D01*
X146074698Y-80723276D01*
X146079007Y-80722040D01*
X146479328Y-80587316D01*
X146483500Y-80585698D01*
X146869949Y-80415254D01*
X146873997Y-80413244D01*
X147243402Y-80208479D01*
X147247217Y-80206133D01*
X147596561Y-79968719D01*
X147600151Y-79966033D01*
X147910132Y-79711412D01*
X147917319Y-79700175D01*
X147917160Y-79697503D01*
X147915015Y-79694225D01*
X144791086Y-76570296D01*
X144779203Y-76564242D01*
X144774172Y-76565038D01*
X141650198Y-79689012D01*
X141644144Y-79700895D01*
X136587826Y-79700895D01*
X136565484Y-79626894D01*
X136502007Y-79507511D01*
X136475643Y-79457927D01*
X136475641Y-79457923D01*
X136473370Y-79453653D01*
X136425772Y-79395291D01*
X136352422Y-79305355D01*
X136352421Y-79305354D01*
X136349361Y-79301602D01*
X136198180Y-79176535D01*
X136034616Y-79088096D01*
X136029839Y-79085513D01*
X136029838Y-79085513D01*
X136025585Y-79083213D01*
X135838152Y-79025193D01*
X135833340Y-79024687D01*
X135833339Y-79024687D01*
X135781868Y-79019277D01*
X135654356Y-79005875D01*
X135598461Y-78980988D01*
X135567868Y-78928000D01*
X135574264Y-78867150D01*
X135615205Y-78821680D01*
X137804429Y-77557731D01*
X139110127Y-76803886D01*
X139118037Y-76799956D01*
X139119732Y-76799004D01*
X139124892Y-76796830D01*
X139131061Y-76792382D01*
X139139445Y-76786959D01*
X139145872Y-76783248D01*
X139149941Y-76779473D01*
X139151358Y-76778428D01*
X139158310Y-76772733D01*
X139188709Y-76750813D01*
X139223237Y-76725915D01*
X139224930Y-76724722D01*
X139237197Y-76716264D01*
X139237200Y-76716261D01*
X139241214Y-76713494D01*
X139242670Y-76711903D01*
X139244276Y-76710745D01*
X139257438Y-76695792D01*
X139258693Y-76694394D01*
X139303155Y-76645810D01*
X139319512Y-76627936D01*
X139321154Y-76626186D01*
X139330703Y-76616253D01*
X139334473Y-76612332D01*
X139335763Y-76610178D01*
X139337339Y-76608456D01*
X139339878Y-76603989D01*
X139339882Y-76603983D01*
X139346879Y-76591672D01*
X139348017Y-76589721D01*
X139363279Y-76564242D01*
X139392161Y-76516023D01*
X139393748Y-76513465D01*
X139403606Y-76498105D01*
X139404669Y-76495143D01*
X139406194Y-76492597D01*
X139407916Y-76487319D01*
X139407918Y-76487315D01*
X139411878Y-76475177D01*
X139412813Y-76472446D01*
X139419729Y-76453176D01*
X139440746Y-76394608D01*
X139442022Y-76391250D01*
X139448472Y-76375156D01*
X139449049Y-76371468D01*
X139450252Y-76368116D01*
X139450994Y-76361973D01*
X140077869Y-76361973D01*
X140078025Y-76366431D01*
X140111900Y-76787452D01*
X140112464Y-76791915D01*
X140184354Y-77208118D01*
X140185317Y-77212500D01*
X140294638Y-77620487D01*
X140295995Y-77624766D01*
X140441842Y-78021169D01*
X140443575Y-78025290D01*
X140624754Y-78406851D01*
X140626856Y-78410804D01*
X140841864Y-78774363D01*
X140844319Y-78778115D01*
X141091393Y-79120691D01*
X141094181Y-79124208D01*
X141271026Y-79327645D01*
X141282458Y-79334514D01*
X141285861Y-79334217D01*
X141288051Y-79332739D01*
X144409704Y-76211086D01*
X144414946Y-76200797D01*
X145144242Y-76200797D01*
X145145038Y-76205828D01*
X148268661Y-79329451D01*
X148280544Y-79335505D01*
X148283553Y-79335029D01*
X148286124Y-79332990D01*
X148506288Y-79072462D01*
X148509029Y-79068903D01*
X148751294Y-78722912D01*
X148753694Y-78719131D01*
X148963611Y-78352595D01*
X148965654Y-78348619D01*
X149141482Y-77964579D01*
X149143166Y-77960411D01*
X149283463Y-77562012D01*
X149284756Y-77557731D01*
X149388371Y-77148248D01*
X149389272Y-77143861D01*
X149455347Y-76726681D01*
X149455847Y-76722222D01*
X149483897Y-76299903D01*
X149484002Y-76297178D01*
X149485006Y-76201380D01*
X149484957Y-76198612D01*
X149465758Y-75775826D01*
X149465350Y-75771337D01*
X149408027Y-75352874D01*
X149407220Y-75348474D01*
X149312201Y-74936903D01*
X149310999Y-74932599D01*
X149179075Y-74531347D01*
X149177486Y-74527162D01*
X149009733Y-74139510D01*
X149007770Y-74135484D01*
X148805584Y-73764651D01*
X148803250Y-73760796D01*
X148568303Y-73409837D01*
X148565616Y-73406192D01*
X148299823Y-73077965D01*
X148296833Y-73074597D01*
X148291881Y-73069505D01*
X148280080Y-73063283D01*
X148275246Y-73063979D01*
X148275193Y-73064017D01*
X145150296Y-76188914D01*
X145144242Y-76200797D01*
X144414946Y-76200797D01*
X144415758Y-76199203D01*
X144414962Y-76194172D01*
X141292766Y-73071976D01*
X141280883Y-73065922D01*
X141276966Y-73066542D01*
X141275626Y-73067566D01*
X141156226Y-73199246D01*
X141153372Y-73202696D01*
X140899173Y-73540029D01*
X140896641Y-73543727D01*
X140674071Y-73902697D01*
X140671875Y-73906627D01*
X140482753Y-74284293D01*
X140480936Y-74288374D01*
X140326810Y-74681657D01*
X140325372Y-74685881D01*
X140207531Y-75091496D01*
X140206476Y-75095856D01*
X140125883Y-75510468D01*
X140125227Y-75514914D01*
X140082542Y-75935129D01*
X140082293Y-75939593D01*
X140077869Y-76361973D01*
X139450994Y-76361973D01*
X139452343Y-76350812D01*
X139452818Y-76347384D01*
X139465295Y-76267654D01*
X139465982Y-76263774D01*
X139468166Y-76252721D01*
X139468167Y-76252710D01*
X139469251Y-76247223D01*
X139469126Y-76243173D01*
X139469724Y-76239349D01*
X139468556Y-76222464D01*
X139468367Y-76218697D01*
X139465883Y-76138494D01*
X139465839Y-76134617D01*
X139465932Y-76123258D01*
X139465978Y-76117662D01*
X139465117Y-76113771D01*
X139464999Y-76109968D01*
X139460687Y-76093442D01*
X139459830Y-76089885D01*
X139456937Y-76076810D01*
X139442276Y-76010571D01*
X139441591Y-76007197D01*
X139439405Y-75995373D01*
X139439404Y-75995369D01*
X139438388Y-75989876D01*
X139436972Y-75986607D01*
X139436241Y-75983306D01*
X139428667Y-75967304D01*
X139427318Y-75964326D01*
X139394067Y-75887582D01*
X139392976Y-75884961D01*
X139388170Y-75872935D01*
X139388169Y-75872934D01*
X139386091Y-75867733D01*
X139384427Y-75865333D01*
X139383334Y-75862810D01*
X139372262Y-75847724D01*
X139370747Y-75845601D01*
X139321109Y-75774004D01*
X139319837Y-75772123D01*
X139311934Y-75760145D01*
X139311928Y-75760138D01*
X139309073Y-75755810D01*
X139307371Y-75754187D01*
X139306138Y-75752409D01*
X139302530Y-75749112D01*
X139291707Y-75739223D01*
X139290172Y-75737791D01*
X139242506Y-75692349D01*
X139227455Y-75678000D01*
X139223581Y-75674096D01*
X139223548Y-75674060D01*
X139213681Y-75663546D01*
X139209488Y-75660732D01*
X139209220Y-75660491D01*
X139208931Y-75660258D01*
X139208588Y-75660013D01*
X139205044Y-75656634D01*
X139192529Y-75649179D01*
X139188042Y-75646338D01*
X139155407Y-75624435D01*
X139151722Y-75621839D01*
X139150128Y-75620661D01*
X139146026Y-75616842D01*
X139135075Y-75610520D01*
X139129439Y-75607007D01*
X139119083Y-75600056D01*
X139113898Y-75598064D01*
X139111919Y-75597036D01*
X139108058Y-75594921D01*
X135612149Y-73576557D01*
X135571208Y-73531087D01*
X135564812Y-73470237D01*
X135595405Y-73417249D01*
X135654054Y-73392112D01*
X135805748Y-73380440D01*
X135805753Y-73380439D01*
X135810576Y-73380068D01*
X135999556Y-73327303D01*
X136003869Y-73325124D01*
X136003875Y-73325122D01*
X136170368Y-73241020D01*
X136170370Y-73241018D01*
X136174689Y-73238837D01*
X136179312Y-73235225D01*
X136325487Y-73121022D01*
X136325491Y-73121018D01*
X136329303Y-73118040D01*
X136340292Y-73105310D01*
X136454345Y-72973177D01*
X136454347Y-72973175D01*
X136457509Y-72969511D01*
X136469555Y-72948307D01*
X136552036Y-72803115D01*
X136552037Y-72803112D01*
X136554425Y-72798909D01*
X136565905Y-72764401D01*
X136586502Y-72702483D01*
X141645682Y-72702483D01*
X141646160Y-72706610D01*
X141646934Y-72707724D01*
X144768914Y-75829704D01*
X144780797Y-75835758D01*
X144785828Y-75834962D01*
X147908840Y-72711950D01*
X147914894Y-72700067D01*
X147914389Y-72696876D01*
X147912558Y-72694548D01*
X147678405Y-72493855D01*
X147674870Y-72491094D01*
X147330569Y-72246411D01*
X147326812Y-72243990D01*
X146961766Y-72031528D01*
X146957770Y-72029440D01*
X146574992Y-71850947D01*
X146570821Y-71849228D01*
X146173424Y-71706156D01*
X146169140Y-71704830D01*
X145760413Y-71598365D01*
X145756008Y-71597428D01*
X145339303Y-71528443D01*
X145334854Y-71527913D01*
X144913606Y-71496978D01*
X144909133Y-71496853D01*
X144893033Y-71497134D01*
X144834522Y-71479245D01*
X144828538Y-71471304D01*
X144819574Y-71482676D01*
X144766300Y-71499346D01*
X144486822Y-71504225D01*
X144482328Y-71504507D01*
X144062437Y-71550123D01*
X144057993Y-71550811D01*
X143643951Y-71634296D01*
X143639603Y-71635380D01*
X143234820Y-71756051D01*
X143230596Y-71757522D01*
X142838421Y-71914380D01*
X142834338Y-71916232D01*
X142458001Y-72107986D01*
X142454085Y-72110211D01*
X142096685Y-72335278D01*
X142092992Y-72337845D01*
X141757462Y-72594377D01*
X141754017Y-72597267D01*
X141652228Y-72690866D01*
X141645682Y-72702483D01*
X136586502Y-72702483D01*
X136614831Y-72617323D01*
X136614831Y-72617321D01*
X136616358Y-72612732D01*
X136640949Y-72418071D01*
X136641341Y-72390000D01*
X136640438Y-72380783D01*
X136627944Y-72253369D01*
X136622194Y-72194728D01*
X136565484Y-72006894D01*
X136512442Y-71907136D01*
X136475643Y-71837927D01*
X136475641Y-71837923D01*
X136473370Y-71833653D01*
X136455184Y-71811354D01*
X136352422Y-71685355D01*
X136352421Y-71685354D01*
X136349361Y-71681602D01*
X136264103Y-71611071D01*
X136201907Y-71559618D01*
X136201906Y-71559617D01*
X136198180Y-71556535D01*
X136059491Y-71481546D01*
X136029839Y-71465513D01*
X136029838Y-71465513D01*
X136025585Y-71463213D01*
X135838152Y-71405193D01*
X135833342Y-71404687D01*
X135833340Y-71404687D01*
X135647835Y-71385189D01*
X135647833Y-71385189D01*
X135643019Y-71384683D01*
X135585936Y-71389878D01*
X135452438Y-71402027D01*
X135452435Y-71402028D01*
X135447618Y-71402466D01*
X135442976Y-71403832D01*
X135442972Y-71403833D01*
X135264040Y-71456496D01*
X135264037Y-71456497D01*
X135259393Y-71457864D01*
X135085512Y-71548767D01*
X135081743Y-71551797D01*
X135081742Y-71551798D01*
X135062740Y-71567076D01*
X134932600Y-71671711D01*
X134913616Y-71694336D01*
X134809589Y-71818310D01*
X134809586Y-71818314D01*
X134806480Y-71822016D01*
X134711956Y-71993954D01*
X134710492Y-71998568D01*
X134710491Y-71998571D01*
X134675077Y-72110211D01*
X134652628Y-72180978D01*
X134652088Y-72185790D01*
X134652088Y-72185791D01*
X134635033Y-72337845D01*
X134630757Y-72375963D01*
X134634060Y-72415296D01*
X134640657Y-72493855D01*
X134647175Y-72571483D01*
X134648508Y-72576131D01*
X134648508Y-72576132D01*
X134687454Y-72711950D01*
X134701258Y-72760091D01*
X134703473Y-72764401D01*
X134759834Y-72874067D01*
X134769617Y-72934465D01*
X134742030Y-72989079D01*
X134687610Y-73017046D01*
X134622282Y-73005057D01*
X134607286Y-72996399D01*
X132584701Y-71828659D01*
X132543761Y-71783190D01*
X132537365Y-71722340D01*
X132559770Y-71677647D01*
X132567075Y-71669317D01*
X132572710Y-71661454D01*
X132895288Y-71102732D01*
X132898061Y-71089687D01*
X132895988Y-71085031D01*
X132184049Y-70673993D01*
X132171004Y-70671220D01*
X132166348Y-70673293D01*
X131755310Y-71385232D01*
X131752537Y-71398277D01*
X131754610Y-71402934D01*
X131771293Y-71412566D01*
X131812233Y-71458036D01*
X131818628Y-71518886D01*
X131788035Y-71571874D01*
X131732139Y-71596760D01*
X131731868Y-71596774D01*
X131730891Y-71596664D01*
X131728268Y-71596964D01*
X131728259Y-71596964D01*
X131722894Y-71597577D01*
X131713199Y-71598205D01*
X131705338Y-71598327D01*
X131699933Y-71599649D01*
X131697493Y-71599962D01*
X131689508Y-71601388D01*
X131659069Y-71604863D01*
X131610960Y-71610355D01*
X131602812Y-71610763D01*
X131600320Y-71611011D01*
X131594724Y-71610935D01*
X131589254Y-71612114D01*
X131589247Y-71612115D01*
X131586932Y-71612614D01*
X131577306Y-71614197D01*
X131576481Y-71614292D01*
X131575092Y-71614450D01*
X131575090Y-71614451D01*
X131569576Y-71615080D01*
X131564340Y-71616920D01*
X131562072Y-71617441D01*
X131554091Y-71619694D01*
X131476574Y-71636406D01*
X131474079Y-71636862D01*
X131469544Y-71637024D01*
X131464139Y-71638472D01*
X131464134Y-71638473D01*
X131454744Y-71640989D01*
X131449989Y-71642138D01*
X131435170Y-71645333D01*
X131431053Y-71647254D01*
X131428595Y-71647996D01*
X126607590Y-72939779D01*
X126595448Y-72942229D01*
X126564710Y-72946451D01*
X126537687Y-72946440D01*
X126517519Y-72943653D01*
X126489990Y-72935659D01*
X126474735Y-72928702D01*
X126450882Y-72913357D01*
X126438338Y-72902457D01*
X126419504Y-72880489D01*
X126404354Y-72856435D01*
X126394703Y-72836441D01*
X126391353Y-72826890D01*
X126389146Y-72819746D01*
X125882111Y-70927462D01*
X126579520Y-70927462D01*
X126584060Y-70981526D01*
X126596112Y-71125045D01*
X126596759Y-71132753D01*
X126598092Y-71137401D01*
X126598092Y-71137402D01*
X126650505Y-71320187D01*
X126653544Y-71330786D01*
X126747712Y-71514018D01*
X126875677Y-71675470D01*
X126879357Y-71678602D01*
X126879359Y-71678604D01*
X126987774Y-71770872D01*
X127032564Y-71808991D01*
X127036787Y-71811351D01*
X127036791Y-71811354D01*
X127107635Y-71850947D01*
X127212398Y-71909497D01*
X127216996Y-71910991D01*
X127403724Y-71971663D01*
X127403726Y-71971664D01*
X127408329Y-71973159D01*
X127612894Y-71997551D01*
X127617716Y-71997180D01*
X127617719Y-71997180D01*
X127685541Y-71991961D01*
X127818300Y-71981746D01*
X128016725Y-71926345D01*
X128021038Y-71924166D01*
X128021044Y-71924164D01*
X128196289Y-71835641D01*
X128196291Y-71835640D01*
X128200610Y-71833458D01*
X128204427Y-71830476D01*
X128359135Y-71709606D01*
X128359139Y-71709602D01*
X128362951Y-71706624D01*
X128373540Y-71694357D01*
X128430303Y-71628595D01*
X128497564Y-71550672D01*
X128504325Y-71538771D01*
X128596934Y-71375750D01*
X128596935Y-71375747D01*
X128599323Y-71371544D01*
X128601036Y-71366397D01*
X128662824Y-71180654D01*
X128662824Y-71180652D01*
X128664351Y-71176063D01*
X128666117Y-71162089D01*
X128683621Y-71023525D01*
X128690171Y-70971674D01*
X128690583Y-70942200D01*
X128690313Y-70939444D01*
X128670952Y-70741980D01*
X128670951Y-70741976D01*
X128670480Y-70737170D01*
X128664921Y-70718756D01*
X128638642Y-70631719D01*
X130646541Y-70631719D01*
X130650469Y-70691656D01*
X130655419Y-70710128D01*
X130681984Y-70763997D01*
X130693631Y-70779175D01*
X130727360Y-70808754D01*
X130735229Y-70814393D01*
X131293951Y-71136971D01*
X131306996Y-71139744D01*
X131311652Y-71137671D01*
X131722690Y-70425733D01*
X131725463Y-70412688D01*
X131723390Y-70408032D01*
X131407544Y-70225678D01*
X132429537Y-70225678D01*
X132431610Y-70230334D01*
X133143549Y-70641373D01*
X133156594Y-70644146D01*
X133161250Y-70642073D01*
X133487547Y-70076910D01*
X133491540Y-70068097D01*
X133505963Y-70025610D01*
X133508459Y-70006647D01*
X133504531Y-69946710D01*
X133499581Y-69928238D01*
X133473016Y-69874369D01*
X133461369Y-69859191D01*
X133427640Y-69829612D01*
X133419771Y-69823973D01*
X132861049Y-69501395D01*
X132848004Y-69498622D01*
X132843348Y-69500695D01*
X132432310Y-70212633D01*
X132429537Y-70225678D01*
X131407544Y-70225678D01*
X131011451Y-69996993D01*
X130998406Y-69994220D01*
X130993750Y-69996293D01*
X130667453Y-70561456D01*
X130663460Y-70570269D01*
X130649037Y-70612756D01*
X130646541Y-70631719D01*
X128638642Y-70631719D01*
X128624392Y-70584520D01*
X128610935Y-70539949D01*
X128514218Y-70358049D01*
X128384011Y-70198400D01*
X128380282Y-70195315D01*
X128229002Y-70070165D01*
X128229000Y-70070164D01*
X128225275Y-70067082D01*
X128082245Y-69989746D01*
X128048309Y-69971397D01*
X128048308Y-69971397D01*
X128044055Y-69969097D01*
X127971734Y-69946710D01*
X127851875Y-69909607D01*
X127851871Y-69909606D01*
X127847254Y-69908177D01*
X127842446Y-69907672D01*
X127842443Y-69907671D01*
X127647185Y-69887149D01*
X127647183Y-69887149D01*
X127642369Y-69886643D01*
X127582354Y-69892105D01*
X127442022Y-69904875D01*
X127442017Y-69904876D01*
X127437203Y-69905314D01*
X127239572Y-69963480D01*
X127235288Y-69965719D01*
X127235287Y-69965720D01*
X127224847Y-69971178D01*
X127057002Y-70058926D01*
X127053231Y-70061958D01*
X126900220Y-70184981D01*
X126900217Y-70184983D01*
X126896447Y-70188015D01*
X126893333Y-70191726D01*
X126893332Y-70191727D01*
X126796083Y-70307624D01*
X126764024Y-70345830D01*
X126761689Y-70350078D01*
X126761688Y-70350079D01*
X126752753Y-70366332D01*
X126664776Y-70526362D01*
X126663313Y-70530975D01*
X126663311Y-70530979D01*
X126618167Y-70673293D01*
X126602484Y-70722732D01*
X126601944Y-70727544D01*
X126601944Y-70727545D01*
X126581342Y-70911222D01*
X126579520Y-70927462D01*
X125882111Y-70927462D01*
X125612275Y-69920419D01*
X125609823Y-69908271D01*
X125609207Y-69903784D01*
X125605600Y-69877529D01*
X125605611Y-69850508D01*
X125608399Y-69830337D01*
X125616392Y-69802813D01*
X125622796Y-69788771D01*
X125623349Y-69787558D01*
X125638692Y-69763707D01*
X125639824Y-69762404D01*
X125649595Y-69751160D01*
X125671562Y-69732326D01*
X125695613Y-69717177D01*
X125715602Y-69707529D01*
X125725157Y-69704177D01*
X125732295Y-69701971D01*
X126304389Y-69548679D01*
X131256939Y-69548679D01*
X131259012Y-69553335D01*
X131970950Y-69964373D01*
X131983995Y-69967146D01*
X131988651Y-69965073D01*
X132399690Y-69253134D01*
X132402463Y-69240089D01*
X132400390Y-69235433D01*
X131835227Y-68909136D01*
X131826414Y-68905143D01*
X131783927Y-68890720D01*
X131764964Y-68888224D01*
X131705027Y-68892152D01*
X131686555Y-68897102D01*
X131632686Y-68923667D01*
X131617508Y-68935314D01*
X131587929Y-68969043D01*
X131582290Y-68976912D01*
X131259712Y-69535634D01*
X131256939Y-69548679D01*
X126304389Y-69548679D01*
X129562046Y-68675793D01*
X130247531Y-68492118D01*
X130251339Y-68491398D01*
X130251295Y-68491207D01*
X130256759Y-68489961D01*
X130262323Y-68489339D01*
X130267604Y-68487487D01*
X130267607Y-68487486D01*
X130273091Y-68485562D01*
X130280243Y-68483353D01*
X130285749Y-68481878D01*
X130285752Y-68481877D01*
X130291115Y-68480440D01*
X130296027Y-68477845D01*
X130301198Y-68475816D01*
X130301264Y-68475985D01*
X130304821Y-68474435D01*
X130361497Y-68454557D01*
X130368589Y-68452365D01*
X130374294Y-68450833D01*
X130379710Y-68449379D01*
X130384661Y-68446749D01*
X130386308Y-68446100D01*
X130388175Y-68445199D01*
X130393420Y-68443360D01*
X130403250Y-68437176D01*
X130409525Y-68433541D01*
X130473338Y-68399643D01*
X130478019Y-68397313D01*
X130486434Y-68393398D01*
X130486436Y-68393397D01*
X130491512Y-68391035D01*
X130495458Y-68387963D01*
X130496065Y-68387569D01*
X130500319Y-68385310D01*
X130511631Y-68375536D01*
X130515540Y-68372329D01*
X130579516Y-68322524D01*
X130599741Y-68306779D01*
X130602250Y-68304889D01*
X130612348Y-68297531D01*
X130616874Y-68294233D01*
X130618999Y-68291786D01*
X130621414Y-68289906D01*
X130624924Y-68285610D01*
X130624929Y-68285605D01*
X130632924Y-68275819D01*
X130634838Y-68273547D01*
X130705630Y-68192025D01*
X130707917Y-68189481D01*
X130716144Y-68180644D01*
X130716147Y-68180640D01*
X130719959Y-68176545D01*
X130721717Y-68173500D01*
X130723907Y-68170978D01*
X130732300Y-68155274D01*
X130733847Y-68152492D01*
X130787450Y-68059650D01*
X130789210Y-68056719D01*
X130792917Y-68050781D01*
X130798559Y-68041745D01*
X130799705Y-68038423D01*
X130801375Y-68035530D01*
X130803012Y-68030225D01*
X130803014Y-68030221D01*
X130806616Y-68018548D01*
X130807623Y-68015464D01*
X130809264Y-68010708D01*
X130841214Y-67918069D01*
X130842823Y-67913404D01*
X130843896Y-67910448D01*
X130848347Y-67898762D01*
X130848350Y-67898749D01*
X130850340Y-67893525D01*
X130850785Y-67890319D01*
X130851784Y-67887422D01*
X130853744Y-67869321D01*
X130854108Y-67866373D01*
X130868769Y-67760728D01*
X130869624Y-67755568D01*
X130871384Y-67746452D01*
X130872445Y-67740957D01*
X130872269Y-67735973D01*
X130872307Y-67735230D01*
X130872969Y-67730463D01*
X130871674Y-67715512D01*
X130871369Y-67710487D01*
X130871264Y-67707496D01*
X130868821Y-67638287D01*
X130868837Y-67630868D01*
X130869073Y-67624936D01*
X130869295Y-67619348D01*
X130868259Y-67613852D01*
X130868130Y-67612089D01*
X130867823Y-67610023D01*
X130867627Y-67604472D01*
X130864644Y-67593238D01*
X130863043Y-67586173D01*
X130851923Y-67527174D01*
X130851494Y-67523315D01*
X130851298Y-67523344D01*
X130850467Y-67517802D01*
X130850267Y-67512208D01*
X130848576Y-67505894D01*
X130847306Y-67501156D01*
X130845647Y-67493875D01*
X130845646Y-67493870D01*
X130843565Y-67482826D01*
X130841348Y-67477733D01*
X130839712Y-67472414D01*
X130839888Y-67472360D01*
X130838609Y-67468701D01*
X130809654Y-67360640D01*
X129630622Y-62960427D01*
X129628171Y-62948278D01*
X129623950Y-62917542D01*
X129623961Y-62890522D01*
X129626747Y-62870360D01*
X129634742Y-62842828D01*
X129641700Y-62827573D01*
X129657041Y-62803724D01*
X129667941Y-62791179D01*
X129689911Y-62772342D01*
X129700603Y-62765608D01*
X129713966Y-62757191D01*
X129733958Y-62747541D01*
X129740213Y-62745347D01*
X129743512Y-62744190D01*
X129750644Y-62741986D01*
X132649984Y-61965111D01*
X132662137Y-61962659D01*
X132692873Y-61958438D01*
X132719893Y-61958449D01*
X132740055Y-61961235D01*
X132767587Y-61969230D01*
X132782842Y-61976188D01*
X132806692Y-61991530D01*
X132819238Y-62002431D01*
X132838071Y-62024397D01*
X132853221Y-62048448D01*
X132862879Y-62068457D01*
X132866232Y-62078020D01*
X132868435Y-62085153D01*
X133198476Y-63316882D01*
X134115776Y-66740291D01*
X134162108Y-66913206D01*
X134162686Y-66915674D01*
X134163073Y-66920205D01*
X134166102Y-66929618D01*
X134167764Y-66934784D01*
X134169147Y-66939480D01*
X134171632Y-66948754D01*
X134171635Y-66948761D01*
X134173072Y-66954125D01*
X134175192Y-66958139D01*
X134176059Y-66960568D01*
X134200307Y-67035938D01*
X134202301Y-67043827D01*
X134203035Y-67046227D01*
X134204060Y-67051735D01*
X134207232Y-67059034D01*
X134210678Y-67068171D01*
X134213062Y-67075581D01*
X134215899Y-67080361D01*
X134216852Y-67082477D01*
X134220626Y-67089857D01*
X134252134Y-67162366D01*
X134254835Y-67169857D01*
X134255858Y-67172311D01*
X134257417Y-67177692D01*
X134260141Y-67182585D01*
X134261329Y-67184719D01*
X134265627Y-67193414D01*
X134268769Y-67200645D01*
X134272060Y-67205119D01*
X134273285Y-67207248D01*
X134277684Y-67214094D01*
X134281742Y-67221383D01*
X134293528Y-67281422D01*
X134267773Y-67336923D01*
X134214314Y-67366685D01*
X134153571Y-67359341D01*
X134128043Y-67342237D01*
X134090916Y-67307918D01*
X134020312Y-67242652D01*
X133997625Y-67228337D01*
X133853094Y-67137145D01*
X133849257Y-67134724D01*
X133661398Y-67059776D01*
X133463026Y-67020317D01*
X133363430Y-67019013D01*
X133265326Y-67017729D01*
X133265321Y-67017729D01*
X133260786Y-67017670D01*
X133256313Y-67018439D01*
X133256308Y-67018439D01*
X133170039Y-67033263D01*
X133061449Y-67051922D01*
X132871693Y-67121927D01*
X132697871Y-67225340D01*
X132694456Y-67228335D01*
X132694453Y-67228337D01*
X132626291Y-67288114D01*
X132545805Y-67358698D01*
X132542997Y-67362260D01*
X132429053Y-67506799D01*
X132420589Y-67517535D01*
X132326414Y-67696531D01*
X132325069Y-67700862D01*
X132325068Y-67700865D01*
X132268857Y-67881898D01*
X132266437Y-67889691D01*
X132242664Y-68090547D01*
X132246724Y-68152492D01*
X132255499Y-68286370D01*
X132255892Y-68292372D01*
X132257008Y-68296765D01*
X132257008Y-68296767D01*
X132302523Y-68475985D01*
X132305678Y-68488406D01*
X132390356Y-68672085D01*
X132507088Y-68837258D01*
X132651966Y-68978391D01*
X132820137Y-69090760D01*
X133005970Y-69170600D01*
X133203240Y-69215238D01*
X133405342Y-69223178D01*
X133458877Y-69215416D01*
X133601019Y-69194807D01*
X133601022Y-69194806D01*
X133605507Y-69194156D01*
X133729426Y-69152091D01*
X133792734Y-69130601D01*
X133792737Y-69130599D01*
X133797031Y-69129142D01*
X133973501Y-69030315D01*
X134042696Y-68972766D01*
X134099526Y-68950093D01*
X134155588Y-68963195D01*
X134661062Y-69255713D01*
X135867376Y-69953808D01*
X135908270Y-69999318D01*
X135916171Y-70050527D01*
X135903200Y-70166163D01*
X135910324Y-70251003D01*
X135918998Y-70354295D01*
X135919618Y-70361683D01*
X135920951Y-70366331D01*
X135920951Y-70366332D01*
X135965622Y-70522115D01*
X135973701Y-70550291D01*
X135975916Y-70554601D01*
X136061174Y-70720496D01*
X136061177Y-70720500D01*
X136063387Y-70724801D01*
X136185261Y-70878569D01*
X136188948Y-70881707D01*
X136188950Y-70881709D01*
X136330993Y-71002597D01*
X136330998Y-71002600D01*
X136334681Y-71005735D01*
X136338903Y-71008095D01*
X136338908Y-71008098D01*
X136444794Y-71067275D01*
X136505956Y-71101457D01*
X136594925Y-71130365D01*
X136687956Y-71160593D01*
X136687959Y-71160594D01*
X136692561Y-71162089D01*
X136887389Y-71185321D01*
X136892211Y-71184950D01*
X136892214Y-71184950D01*
X137078191Y-71170640D01*
X137078196Y-71170639D01*
X137083019Y-71170268D01*
X137271999Y-71117503D01*
X137276312Y-71115324D01*
X137276318Y-71115322D01*
X137442811Y-71031220D01*
X137442813Y-71031218D01*
X137447132Y-71029037D01*
X137454187Y-71023525D01*
X137597930Y-70911222D01*
X137597934Y-70911218D01*
X137601746Y-70908240D01*
X137611711Y-70896696D01*
X137726788Y-70763377D01*
X137726790Y-70763375D01*
X137729952Y-70759711D01*
X137745386Y-70732542D01*
X137824479Y-70593315D01*
X137824480Y-70593312D01*
X137826868Y-70589109D01*
X137832285Y-70572827D01*
X137887274Y-70407523D01*
X137887274Y-70407521D01*
X137888801Y-70402932D01*
X137893665Y-70364434D01*
X137904130Y-70281592D01*
X137913392Y-70208271D01*
X137913478Y-70202152D01*
X137913717Y-70184981D01*
X137913784Y-70180200D01*
X137912881Y-70170983D01*
X137900713Y-70046897D01*
X137894637Y-69984928D01*
X137837927Y-69797094D01*
X137789240Y-69705527D01*
X137778615Y-69645271D01*
X137805437Y-69590278D01*
X137859461Y-69561553D01*
X137920051Y-69570068D01*
X137926152Y-69573312D01*
X139179328Y-70296833D01*
X141418750Y-71589763D01*
X141422082Y-71591687D01*
X141429423Y-71596561D01*
X141431108Y-71597561D01*
X141435575Y-71600946D01*
X141442503Y-71604060D01*
X141451395Y-71608612D01*
X141457829Y-71612326D01*
X141463136Y-71613964D01*
X141464757Y-71614671D01*
X141473156Y-71617840D01*
X141546210Y-71650682D01*
X141548010Y-71651514D01*
X141565909Y-71660018D01*
X141568011Y-71660483D01*
X141569818Y-71661295D01*
X141574285Y-71662192D01*
X141574299Y-71662196D01*
X141589380Y-71665225D01*
X141591248Y-71665619D01*
X141679127Y-71685042D01*
X141681486Y-71685594D01*
X141700146Y-71690202D01*
X141702656Y-71690242D01*
X141704935Y-71690746D01*
X141724311Y-71690615D01*
X141726486Y-71690626D01*
X141812387Y-71692007D01*
X141815414Y-71692102D01*
X141822744Y-71692447D01*
X141828038Y-71692696D01*
X141828039Y-71692696D01*
X141833637Y-71692959D01*
X141836730Y-71692399D01*
X141839700Y-71692447D01*
X141857650Y-71688656D01*
X141860473Y-71688102D01*
X141941788Y-71673383D01*
X141945376Y-71672802D01*
X141956998Y-71671136D01*
X141957004Y-71671134D01*
X141962547Y-71670340D01*
X141966033Y-71668994D01*
X141969532Y-71668361D01*
X141976881Y-71665225D01*
X141985557Y-71661523D01*
X141988761Y-71660222D01*
X142064056Y-71631158D01*
X142067763Y-71629811D01*
X142073436Y-71627877D01*
X142083730Y-71624368D01*
X142087174Y-71622235D01*
X142090785Y-71620841D01*
X142104865Y-71611360D01*
X142107974Y-71609351D01*
X142176223Y-71567076D01*
X142179558Y-71565100D01*
X142182481Y-71563444D01*
X142194293Y-71556753D01*
X142197229Y-71554064D01*
X142200470Y-71552057D01*
X142212619Y-71540066D01*
X142215279Y-71537537D01*
X142275192Y-71482676D01*
X142277749Y-71480416D01*
X142286904Y-71472604D01*
X142286905Y-71472603D01*
X142291166Y-71468967D01*
X142293289Y-71466106D01*
X142295782Y-71463823D01*
X142305869Y-71449241D01*
X142307750Y-71446616D01*
X142357589Y-71379445D01*
X142359288Y-71377222D01*
X142370797Y-71362605D01*
X142372046Y-71359958D01*
X142373681Y-71357755D01*
X142375921Y-71352659D01*
X142381192Y-71340667D01*
X142382295Y-71338245D01*
X142419495Y-71259429D01*
X142420488Y-71257386D01*
X142423552Y-71251262D01*
X142429216Y-71239942D01*
X142429769Y-71237660D01*
X142430694Y-71235701D01*
X142434909Y-71216560D01*
X142435382Y-71214517D01*
X142435905Y-71212363D01*
X142455791Y-71130359D01*
X142457231Y-71125062D01*
X142461421Y-71111204D01*
X142461762Y-71106167D01*
X142461841Y-71105794D01*
X142461892Y-71105463D01*
X142461934Y-71105029D01*
X142463090Y-71100262D01*
X142463166Y-71094707D01*
X142463289Y-71085704D01*
X142463506Y-71080377D01*
X142466155Y-71041209D01*
X142466560Y-71036729D01*
X142466789Y-71034710D01*
X142468043Y-71029256D01*
X142468043Y-71016620D01*
X142468269Y-71009940D01*
X142468733Y-71003086D01*
X142468733Y-71003082D01*
X142469108Y-70997534D01*
X142468240Y-70992039D01*
X142468141Y-70989833D01*
X142468043Y-70985418D01*
X142468043Y-69555361D01*
X143075316Y-69555361D01*
X143075492Y-69559026D01*
X143075492Y-69559028D01*
X143076241Y-69574627D01*
X143087443Y-69807820D01*
X143120894Y-69975991D01*
X143135618Y-70050010D01*
X143136752Y-70055713D01*
X143137992Y-70059168D01*
X143137993Y-70059170D01*
X143219476Y-70286120D01*
X143222160Y-70293595D01*
X143341792Y-70516240D01*
X143493018Y-70718756D01*
X143672517Y-70896696D01*
X143675476Y-70898866D01*
X143675480Y-70898869D01*
X143782332Y-70977215D01*
X143876346Y-71046149D01*
X144100026Y-71163833D01*
X144103497Y-71165045D01*
X144103499Y-71165046D01*
X144135047Y-71176063D01*
X144338644Y-71247162D01*
X144586958Y-71294306D01*
X144768460Y-71301437D01*
X144825862Y-71322615D01*
X144827519Y-71325094D01*
X144831727Y-71319084D01*
X144880528Y-71299737D01*
X145090760Y-71276713D01*
X145230428Y-71239942D01*
X145331635Y-71213297D01*
X145331640Y-71213295D01*
X145335181Y-71212363D01*
X145567405Y-71112591D01*
X145583641Y-71102544D01*
X145779205Y-70981526D01*
X145779210Y-70981522D01*
X145782331Y-70979591D01*
X145801124Y-70963682D01*
X145972438Y-70818653D01*
X145975238Y-70816283D01*
X146068334Y-70710128D01*
X146139462Y-70629023D01*
X146139466Y-70629018D01*
X146141888Y-70626256D01*
X146150572Y-70612756D01*
X146194424Y-70544580D01*
X146278619Y-70413684D01*
X146281395Y-70407523D01*
X146371151Y-70208271D01*
X146382428Y-70183236D01*
X146384063Y-70177442D01*
X146428343Y-70020433D01*
X146451034Y-69939976D01*
X146482931Y-69689247D01*
X146484388Y-69633602D01*
X146485203Y-69602492D01*
X146485203Y-69602487D01*
X146485268Y-69600000D01*
X146485084Y-69597527D01*
X146485084Y-69597517D01*
X146466809Y-69351599D01*
X146466808Y-69351593D01*
X146466537Y-69347945D01*
X146410756Y-69101428D01*
X146407305Y-69092553D01*
X146320480Y-68869282D01*
X146320478Y-68869277D01*
X146319150Y-68865863D01*
X146193731Y-68646426D01*
X146037255Y-68447938D01*
X146034582Y-68445424D01*
X146034577Y-68445418D01*
X145912391Y-68330477D01*
X145853160Y-68274758D01*
X145645489Y-68130691D01*
X145600569Y-68108539D01*
X145422107Y-68020531D01*
X145422103Y-68020529D01*
X145418805Y-68018903D01*
X145415303Y-68017782D01*
X145415298Y-68017780D01*
X145270106Y-67971304D01*
X145178087Y-67941849D01*
X145174472Y-67941260D01*
X145174471Y-67941260D01*
X144932241Y-67901810D01*
X144932240Y-67901810D01*
X144928624Y-67901221D01*
X144924961Y-67901173D01*
X144924960Y-67901173D01*
X144802260Y-67899567D01*
X144675896Y-67897913D01*
X144672268Y-67898407D01*
X144672264Y-67898407D01*
X144559886Y-67913701D01*
X144425455Y-67931996D01*
X144182803Y-68002723D01*
X143953270Y-68108539D01*
X143741899Y-68247120D01*
X143739166Y-68249559D01*
X143739165Y-68249560D01*
X143573621Y-68397313D01*
X143553333Y-68415421D01*
X143550986Y-68418243D01*
X143550985Y-68418244D01*
X143502271Y-68476817D01*
X143391715Y-68609746D01*
X143260595Y-68825825D01*
X143162854Y-69058911D01*
X143161949Y-69062473D01*
X143161949Y-69062474D01*
X143112873Y-69255713D01*
X143100639Y-69303883D01*
X143075316Y-69555361D01*
X142468043Y-69555361D01*
X142468043Y-66945643D01*
X142486950Y-66887452D01*
X142536450Y-66851488D01*
X142597636Y-66851488D01*
X142647136Y-66887452D01*
X142655095Y-66900390D01*
X142662501Y-66914801D01*
X142784375Y-67068569D01*
X142788062Y-67071707D01*
X142788064Y-67071709D01*
X142930107Y-67192597D01*
X142930112Y-67192600D01*
X142933795Y-67195735D01*
X142938017Y-67198095D01*
X142938022Y-67198098D01*
X143030145Y-67249583D01*
X143105070Y-67291457D01*
X143190069Y-67319075D01*
X143287070Y-67350593D01*
X143287073Y-67350594D01*
X143291675Y-67352089D01*
X143486503Y-67375321D01*
X143491325Y-67374950D01*
X143491328Y-67374950D01*
X143677305Y-67360640D01*
X143677310Y-67360639D01*
X143682133Y-67360268D01*
X143871113Y-67307503D01*
X143875426Y-67305324D01*
X143875432Y-67305322D01*
X144041925Y-67221220D01*
X144041927Y-67221218D01*
X144046246Y-67219037D01*
X144059573Y-67208625D01*
X144197044Y-67101222D01*
X144197048Y-67101218D01*
X144200860Y-67098240D01*
X144214467Y-67082477D01*
X144325902Y-66953377D01*
X144325904Y-66953375D01*
X144329066Y-66949711D01*
X144336214Y-66937129D01*
X144423593Y-66783315D01*
X144423594Y-66783312D01*
X144425982Y-66779109D01*
X144432114Y-66760678D01*
X144486388Y-66597523D01*
X144486388Y-66597521D01*
X144487915Y-66592932D01*
X144512506Y-66398271D01*
X144512898Y-66370200D01*
X144511995Y-66360983D01*
X144494223Y-66179746D01*
X144493751Y-66174928D01*
X144437041Y-65987094D01*
X144344927Y-65813853D01*
X144332499Y-65798614D01*
X144223979Y-65665555D01*
X144223978Y-65665554D01*
X144220918Y-65661802D01*
X144069737Y-65536735D01*
X143897142Y-65443413D01*
X143709709Y-65385393D01*
X143704899Y-65384887D01*
X143704897Y-65384887D01*
X143519392Y-65365389D01*
X143519390Y-65365389D01*
X143514576Y-65364883D01*
X143450448Y-65370719D01*
X143323995Y-65382227D01*
X143323992Y-65382228D01*
X143319175Y-65382666D01*
X143314533Y-65384032D01*
X143314529Y-65384033D01*
X143135597Y-65436696D01*
X143135594Y-65436697D01*
X143130950Y-65438064D01*
X142957069Y-65528967D01*
X142953300Y-65531997D01*
X142953299Y-65531998D01*
X142943573Y-65539818D01*
X142804157Y-65651911D01*
X142777743Y-65683390D01*
X142681146Y-65798510D01*
X142681143Y-65798514D01*
X142678037Y-65802216D01*
X142669290Y-65818127D01*
X142653797Y-65846308D01*
X142609195Y-65888192D01*
X142548492Y-65895860D01*
X142494875Y-65866384D01*
X142468824Y-65811022D01*
X142468043Y-65798614D01*
X142468043Y-63477113D01*
X142486950Y-63418922D01*
X142536450Y-63382958D01*
X142580593Y-63380357D01*
X142580690Y-63379375D01*
X142595160Y-63380800D01*
X143240320Y-63380800D01*
X143253005Y-63376678D01*
X143256000Y-63372557D01*
X143256000Y-63365120D01*
X143764000Y-63365120D01*
X143768122Y-63377805D01*
X143772243Y-63380800D01*
X144424840Y-63380800D01*
X144434462Y-63379852D01*
X144478474Y-63371098D01*
X144496142Y-63363779D01*
X144546082Y-63330411D01*
X144559611Y-63316882D01*
X144592979Y-63266942D01*
X144600298Y-63249274D01*
X144609052Y-63205262D01*
X144610000Y-63195640D01*
X144610000Y-62550480D01*
X144605878Y-62537795D01*
X144601757Y-62534800D01*
X143779680Y-62534800D01*
X143766995Y-62538922D01*
X143764000Y-62543043D01*
X143764000Y-63365120D01*
X143256000Y-63365120D01*
X143256000Y-62550480D01*
X143251878Y-62537795D01*
X143247757Y-62534800D01*
X142425680Y-62534800D01*
X142412995Y-62538922D01*
X142406786Y-62547468D01*
X142382553Y-62595029D01*
X142328038Y-62622808D01*
X142267605Y-62613238D01*
X142233811Y-62585040D01*
X142230690Y-62580946D01*
X142227836Y-62576175D01*
X142223993Y-62572159D01*
X142222511Y-62570215D01*
X142217269Y-62563996D01*
X142170229Y-62500456D01*
X142165808Y-62493614D01*
X142164344Y-62491575D01*
X142161609Y-62486685D01*
X142156256Y-62480774D01*
X142150078Y-62473237D01*
X142145443Y-62466976D01*
X142141224Y-62463355D01*
X142139639Y-62461652D01*
X142133704Y-62455873D01*
X142080491Y-62397115D01*
X142078836Y-62395167D01*
X142076426Y-62391318D01*
X142065565Y-62380457D01*
X142062195Y-62376915D01*
X142052044Y-62365706D01*
X142048325Y-62363104D01*
X142046466Y-62361358D01*
X141696228Y-62011120D01*
X142410000Y-62011120D01*
X142414122Y-62023805D01*
X142418243Y-62026800D01*
X143240320Y-62026800D01*
X143253005Y-62022678D01*
X143256000Y-62018557D01*
X143256000Y-62011120D01*
X143764000Y-62011120D01*
X143768122Y-62023805D01*
X143772243Y-62026800D01*
X144594320Y-62026800D01*
X144607005Y-62022678D01*
X144610000Y-62018557D01*
X144610000Y-61365960D01*
X144609052Y-61356338D01*
X144600298Y-61312326D01*
X144592979Y-61294658D01*
X144559611Y-61244718D01*
X144546082Y-61231189D01*
X144496142Y-61197821D01*
X144478474Y-61190502D01*
X144434462Y-61181748D01*
X144424840Y-61180800D01*
X143779680Y-61180800D01*
X143766995Y-61184922D01*
X143764000Y-61189043D01*
X143764000Y-62011120D01*
X143256000Y-62011120D01*
X143256000Y-61196480D01*
X143251878Y-61183795D01*
X143247757Y-61180800D01*
X142595160Y-61180800D01*
X142585538Y-61181748D01*
X142541526Y-61190502D01*
X142523858Y-61197821D01*
X142473918Y-61231189D01*
X142460389Y-61244718D01*
X142427021Y-61294658D01*
X142419702Y-61312326D01*
X142410948Y-61356338D01*
X142410000Y-61365960D01*
X142410000Y-62011120D01*
X141696228Y-62011120D01*
X138517230Y-58832122D01*
X138509030Y-58822823D01*
X138490009Y-58798319D01*
X138476508Y-58774912D01*
X138468839Y-58756056D01*
X138461997Y-58728217D01*
X138460395Y-58711527D01*
X138461757Y-58683200D01*
X138464924Y-58666887D01*
X138474531Y-58639592D01*
X138487791Y-58614436D01*
X138500281Y-58596083D01*
X138500658Y-58595644D01*
X138506868Y-58588418D01*
X138511947Y-58582939D01*
X140634419Y-56460467D01*
X140643717Y-56452268D01*
X140668219Y-56433248D01*
X140691631Y-56419744D01*
X140710489Y-56412075D01*
X140738323Y-56405235D01*
X140755011Y-56403633D01*
X140783339Y-56404995D01*
X140799652Y-56408162D01*
X140826947Y-56417769D01*
X140852103Y-56431029D01*
X140870456Y-56443519D01*
X140878125Y-56450109D01*
X140883607Y-56455191D01*
X144188988Y-59760572D01*
X144191513Y-59763509D01*
X144191658Y-59763375D01*
X144195465Y-59767479D01*
X144198788Y-59771990D01*
X144207462Y-59779444D01*
X144212927Y-59784511D01*
X144220893Y-59792477D01*
X144225599Y-59795434D01*
X144229942Y-59798898D01*
X144229825Y-59799045D01*
X144232949Y-59801345D01*
X144278493Y-59840483D01*
X144283914Y-59845506D01*
X144292090Y-59853674D01*
X144296836Y-59856642D01*
X144298206Y-59857732D01*
X144299938Y-59858911D01*
X144304155Y-59862535D01*
X144309071Y-59865129D01*
X144309072Y-59865130D01*
X144314419Y-59867952D01*
X144320704Y-59871569D01*
X144381998Y-59909903D01*
X144386344Y-59912784D01*
X144393934Y-59918109D01*
X144393938Y-59918111D01*
X144398518Y-59921324D01*
X144403141Y-59923201D01*
X144403797Y-59923536D01*
X144407880Y-59926090D01*
X144422027Y-59931009D01*
X144426749Y-59932787D01*
X144525595Y-59972923D01*
X144528491Y-59974153D01*
X144539914Y-59979220D01*
X144539920Y-59979222D01*
X144545031Y-59981489D01*
X144548210Y-59982105D01*
X144551049Y-59983258D01*
X144556533Y-59984151D01*
X144568993Y-59986180D01*
X144571921Y-59986702D01*
X144677933Y-60007253D01*
X144681277Y-60007962D01*
X144693032Y-60010665D01*
X144693036Y-60010665D01*
X144698496Y-60011921D01*
X144702014Y-60011921D01*
X144705290Y-60012556D01*
X144723036Y-60011974D01*
X144726281Y-60011921D01*
X144833459Y-60011921D01*
X144836877Y-60011980D01*
X144848944Y-60012397D01*
X144848945Y-60012397D01*
X144854535Y-60012590D01*
X144857986Y-60011921D01*
X144861326Y-60011921D01*
X144866737Y-60010687D01*
X144866743Y-60010686D01*
X144878653Y-60007969D01*
X144881805Y-60007304D01*
X144987891Y-59986739D01*
X144990880Y-59986209D01*
X145008787Y-59983324D01*
X145011787Y-59982106D01*
X145014794Y-59981523D01*
X145031476Y-59974158D01*
X145034142Y-59973029D01*
X145133034Y-59932875D01*
X145137890Y-59931051D01*
X145151968Y-59926184D01*
X145156189Y-59923544D01*
X145156871Y-59923197D01*
X145161317Y-59921391D01*
X145165866Y-59918211D01*
X145165869Y-59918210D01*
X145173592Y-59912812D01*
X145177796Y-59910031D01*
X145239071Y-59871710D01*
X145245496Y-59868020D01*
X145250751Y-59865258D01*
X145255710Y-59862652D01*
X145259961Y-59858999D01*
X145261406Y-59858017D01*
X145263045Y-59856716D01*
X145267759Y-59853768D01*
X145271693Y-59849851D01*
X145271699Y-59849847D01*
X145275983Y-59845582D01*
X145281299Y-59840664D01*
X145306702Y-59818833D01*
X145326857Y-59801514D01*
X145329983Y-59799220D01*
X145329856Y-59799061D01*
X145334237Y-59795573D01*
X145338983Y-59792602D01*
X145347074Y-59784511D01*
X145352538Y-59779445D01*
X145361077Y-59772107D01*
X145364377Y-59767644D01*
X145368165Y-59763568D01*
X145368300Y-59763693D01*
X145370828Y-59760757D01*
X148671114Y-56460471D01*
X148680411Y-56452272D01*
X148680416Y-56452268D01*
X148704920Y-56433246D01*
X148728331Y-56419744D01*
X148747186Y-56412076D01*
X148775021Y-56405235D01*
X148791709Y-56403633D01*
X148820032Y-56404994D01*
G37*
%TD.AperFunction*%
%TD*%
M02*
